<svg width="370" height="756" viewBox="0 0 370 756" fill="none" xmlns="http://www.w3.org/2000/svg">
<path d="M22.5568 16.875C21.9091 11.5 17.8409 8.40909 12.4545 8.40909C6.30682 8.40909 1.61364 12.75 1.61364 20.3636C1.61364 27.9545 6.22727 32.3182 12.4545 32.3182C18.4205 32.3182 22.0227 28.3523 22.5568 24.0682L17.5795 24.0455C17.1136 26.5341 15.1591 27.9659 12.5341 27.9659C9 27.9659 6.60227 25.3409 6.60227 20.3636C6.60227 15.5227 8.96591 12.7614 12.5682 12.7614C15.2614 12.7614 17.2045 14.3182 17.5795 16.875H22.5568ZM33.8807 32.3409C39.1761 32.3409 42.4716 28.7159 42.4716 23.3409C42.4716 17.9318 39.1761 14.3182 33.8807 14.3182C28.5852 14.3182 25.2898 17.9318 25.2898 23.3409C25.2898 28.7159 28.5852 32.3409 33.8807 32.3409ZM33.9034 28.5909C31.4602 28.5909 30.2102 26.3523 30.2102 23.3068C30.2102 20.2614 31.4602 18.0114 33.9034 18.0114C36.3011 18.0114 37.5511 20.2614 37.5511 23.3068C37.5511 26.3523 36.3011 28.5909 33.9034 28.5909ZM50.4602 21.9091C50.4716 19.6591 51.8125 18.3409 53.767 18.3409C55.7102 18.3409 56.8807 19.6136 56.8693 21.75V32H61.7102V20.8864C61.7102 16.8182 59.3239 14.3182 55.6875 14.3182C53.0966 14.3182 51.2216 15.5909 50.4375 17.625H50.233V14.5455H45.6193V32H50.4602V21.9091ZM74.8097 14.5455H71.5256V10.3636H66.6847V14.5455H64.2983V18.1818H66.6847V27.2727C66.6619 30.6932 68.9915 32.3864 72.5028 32.2386C73.7528 32.1932 74.6392 31.9432 75.1278 31.7841L74.3665 28.1818C74.1278 28.2273 73.6165 28.3409 73.1619 28.3409C72.196 28.3409 71.5256 27.9773 71.5256 26.6364V18.1818H74.8097V14.5455ZM82.9403 32.3295C85.5199 32.3295 87.1903 31.2045 88.0426 29.5795H88.179V32H92.7699V20.2273C92.7699 16.0682 89.2472 14.3182 85.3608 14.3182C81.179 14.3182 78.429 16.3182 77.7585 19.5L82.2358 19.8636C82.5653 18.7045 83.5994 17.8523 85.3381 17.8523C86.9858 17.8523 87.929 18.6818 87.929 20.1136V20.1818C87.929 21.3068 86.7358 21.4545 83.7017 21.75C80.2472 22.0682 77.1449 23.2273 77.1449 27.125C77.1449 30.5795 79.6108 32.3295 82.9403 32.3295ZM84.3267 28.9886C82.8381 28.9886 81.7699 28.2955 81.7699 26.9659C81.7699 25.6023 82.8949 24.9318 84.5994 24.6932C85.6562 24.5455 87.3835 24.2955 87.9631 23.9091V25.7614C87.9631 27.5909 86.4517 28.9886 84.3267 28.9886ZM104.412 32.3409C109.06 32.3409 111.98 29.6136 112.207 25.6023H107.639C107.355 27.4659 106.128 28.5114 104.469 28.5114C102.207 28.5114 100.741 26.6136 100.741 23.2727C100.741 19.9773 102.219 18.0909 104.469 18.0909C106.241 18.0909 107.378 19.2614 107.639 21H112.207C112.003 16.9659 108.946 14.3182 104.389 14.3182C99.0938 14.3182 95.821 17.9886 95.821 23.3409C95.821 28.6477 99.0369 32.3409 104.412 32.3409ZM124.591 14.5455H121.307V10.3636H116.466V14.5455H114.08V18.1818H116.466V27.2727C116.443 30.6932 118.773 32.3864 122.284 32.2386C123.534 32.1932 124.42 31.9432 124.909 31.7841L124.148 28.1818C123.909 28.2273 123.398 28.3409 122.943 28.3409C121.977 28.3409 121.307 27.9773 121.307 26.6364V18.1818H124.591V14.5455ZM140.162 8.72727H135.241V32H140.162V8.72727ZM148.96 21.9091C148.972 19.6591 150.312 18.3409 152.267 18.3409C154.21 18.3409 155.381 19.6136 155.369 21.75V32H160.21V20.8864C160.21 16.8182 157.824 14.3182 154.188 14.3182C151.597 14.3182 149.722 15.5909 148.938 17.625H148.733V14.5455H144.119V32H148.96V21.9091ZM173.412 14.5455H169.946V13.375C169.946 12.1932 170.423 11.5 171.844 11.5C172.423 11.5 173.014 11.625 173.401 11.75L174.253 8.11364C173.651 7.93182 172.321 7.63636 170.832 7.63636C167.548 7.63636 165.105 9.48864 165.105 13.2841V14.5455H162.639V18.1818H165.105V32H169.946V18.1818H173.412V14.5455ZM183.631 32.3409C188.926 32.3409 192.222 28.7159 192.222 23.3409C192.222 17.9318 188.926 14.3182 183.631 14.3182C178.335 14.3182 175.04 17.9318 175.04 23.3409C175.04 28.7159 178.335 32.3409 183.631 32.3409ZM183.653 28.5909C181.21 28.5909 179.96 26.3523 179.96 23.3068C179.96 20.2614 181.21 18.0114 183.653 18.0114C186.051 18.0114 187.301 20.2614 187.301 23.3068C187.301 26.3523 186.051 28.5909 183.653 28.5909ZM195.369 32H200.21V22.125C200.21 19.9773 201.778 18.5 203.915 18.5C204.585 18.5 205.506 18.6136 205.96 18.7614V14.4659C205.528 14.3636 204.926 14.2955 204.438 14.2955C202.483 14.2955 200.881 15.4318 200.244 17.5909H200.062V14.5455H195.369V32ZM208.463 32H213.304V21.5227C213.304 19.5909 214.531 18.3068 216.145 18.3068C217.736 18.3068 218.804 19.3977 218.804 21.1136V32H223.497V21.3409C223.497 19.5341 224.531 18.3068 226.293 18.3068C227.838 18.3068 228.997 19.2727 228.997 21.2159V32H233.827V20.2614C233.827 16.4773 231.577 14.3182 228.327 14.3182C225.77 14.3182 223.781 15.625 223.065 17.625H222.884C222.327 15.6023 220.543 14.3182 218.145 14.3182C215.793 14.3182 214.009 15.5682 213.281 17.625H213.077V14.5455H208.463V32ZM242.628 32.3295C245.207 32.3295 246.878 31.2045 247.73 29.5795H247.866V32H252.457V20.2273C252.457 16.0682 248.935 14.3182 245.048 14.3182C240.866 14.3182 238.116 16.3182 237.446 19.5L241.923 19.8636C242.253 18.7045 243.287 17.8523 245.026 17.8523C246.673 17.8523 247.616 18.6818 247.616 20.1136V20.1818C247.616 21.3068 246.423 21.4545 243.389 21.75C239.935 22.0682 236.832 23.2273 236.832 27.125C236.832 30.5795 239.298 32.3295 242.628 32.3295ZM244.014 28.9886C242.526 28.9886 241.457 28.2955 241.457 26.9659C241.457 25.6023 242.582 24.9318 244.287 24.6932C245.344 24.5455 247.071 24.2955 247.651 23.9091V25.7614C247.651 27.5909 246.139 28.9886 244.014 28.9886ZM265.497 14.5455H262.213V10.3636H257.372V14.5455H254.986V18.1818H257.372V27.2727C257.349 30.6932 259.679 32.3864 263.19 32.2386C264.44 32.1932 265.327 31.9432 265.815 31.7841L265.054 28.1818C264.815 28.2273 264.304 28.3409 263.849 28.3409C262.884 28.3409 262.213 27.9773 262.213 26.6364V18.1818H265.497V14.5455ZM268.651 32H273.491V14.5455H268.651V32ZM271.082 12.2955C272.526 12.2955 273.707 11.1932 273.707 9.84091C273.707 8.5 272.526 7.39773 271.082 7.39773C269.651 7.39773 268.469 8.5 268.469 9.84091C268.469 11.1932 269.651 12.2955 271.082 12.2955ZM285.256 32.3409C290.551 32.3409 293.847 28.7159 293.847 23.3409C293.847 17.9318 290.551 14.3182 285.256 14.3182C279.96 14.3182 276.665 17.9318 276.665 23.3409C276.665 28.7159 279.96 32.3409 285.256 32.3409ZM285.278 28.5909C282.835 28.5909 281.585 26.3523 281.585 23.3068C281.585 20.2614 282.835 18.0114 285.278 18.0114C287.676 18.0114 288.926 20.2614 288.926 23.3068C288.926 26.3523 287.676 28.5909 285.278 28.5909ZM301.835 21.9091C301.847 19.6591 303.188 18.3409 305.142 18.3409C307.085 18.3409 308.256 19.6136 308.244 21.75V32H313.085V20.8864C313.085 16.8182 310.699 14.3182 307.062 14.3182C304.472 14.3182 302.597 15.5909 301.812 17.625H301.608V14.5455H296.994V32H301.835V21.9091Z" fill="#2B2B2B"/>
<rect y="318" width="370" height="210" fill="white"/>
<path d="M26.4382 436H34.7223V434.3H28.4134V430.292H34.2173V428.598H28.4134V424.609H34.6456V422.909H26.4382V436ZM37.1305 436H39.0417V429.947C39.0417 428.624 39.9686 427.703 41.0552 427.703C42.1163 427.703 42.8514 428.406 42.8514 429.474V436H44.7562V429.742C44.7562 428.56 45.4785 427.703 46.725 427.703C47.7349 427.703 48.5659 428.266 48.5659 429.595V436H50.4771V429.416C50.4771 427.173 49.2243 426.054 47.4473 426.054C46.0346 426.054 44.9735 426.732 44.5005 427.78H44.3983C43.97 426.706 43.0687 426.054 41.7583 426.054C40.4608 426.054 39.4956 426.7 39.0865 427.78H38.965V426.182H37.1305V436ZM55.896 436.217C57.5195 436.217 58.4336 435.393 58.7979 434.658H58.8746V436H60.7411V429.48C60.7411 426.623 58.4911 426.054 56.9315 426.054C55.1545 426.054 53.5181 426.77 52.8789 428.56L54.6751 428.969C54.9563 428.272 55.6722 427.601 56.957 427.601C58.1907 427.601 58.8235 428.246 58.8235 429.359V429.403C58.8235 430.1 58.1076 430.087 56.3434 430.292C54.4833 430.509 52.5785 430.995 52.5785 433.226C52.5785 435.156 54.0295 436.217 55.896 436.217ZM56.3114 434.683C55.2312 434.683 54.4513 434.197 54.4513 433.251C54.4513 432.229 55.359 431.864 56.4648 431.717C57.0849 431.634 58.555 431.468 58.8299 431.193V432.459C58.8299 433.622 57.9031 434.683 56.3114 434.683ZM63.2868 436H65.198V426.182H63.2868V436ZM64.252 424.667C64.9103 424.667 65.46 424.156 65.46 423.529C65.46 422.903 64.9103 422.385 64.252 422.385C63.5872 422.385 63.0439 422.903 63.0439 423.529C63.0439 424.156 63.5872 424.667 64.252 424.667ZM69.6804 422.909H67.7692V436H69.6804V422.909ZM73.5108 428.975C74.2076 428.975 74.7892 428.406 74.7892 427.697C74.7892 427 74.2076 426.425 73.5108 426.425C72.8077 426.425 72.2324 427 72.2324 427.697C72.2324 428.406 72.8077 428.975 73.5108 428.975ZM73.5108 436.121C74.2076 436.121 74.7892 435.553 74.7892 434.843C74.7892 434.146 74.2076 433.571 73.5108 433.571C72.8077 433.571 72.2324 434.146 72.2324 434.843C72.2324 435.553 72.8077 436.121 73.5108 436.121Z" fill="#767676"/>
<path d="M183.987 423.091L187.929 429.504V434H189.25V429.504L193.192 423.091H191.679L188.653 428.183H188.525L185.5 423.091H183.987ZM198.054 434.17C200.269 434.17 201.761 432.487 201.761 429.952C201.761 427.395 200.269 425.712 198.054 425.712C195.838 425.712 194.346 427.395 194.346 429.952C194.346 432.487 195.838 434.17 198.054 434.17ZM198.054 433.041C196.37 433.041 195.603 431.592 195.603 429.952C195.603 428.311 196.37 426.841 198.054 426.841C199.737 426.841 200.504 428.311 200.504 429.952C200.504 431.592 199.737 433.041 198.054 433.041ZM208.836 430.655C208.836 432.189 207.664 432.892 206.727 432.892C205.683 432.892 204.937 432.125 204.937 430.932V425.818H203.68V431.017C203.68 433.105 204.788 434.107 206.322 434.107C207.558 434.107 208.367 433.446 208.751 432.615H208.836V434H210.093V425.818H208.836V430.655ZM212.396 434H213.653V428.822C213.653 427.714 214.526 426.905 215.72 426.905C216.055 426.905 216.401 426.969 216.487 426.99V425.712C216.343 425.701 216.013 425.69 215.826 425.69C214.846 425.69 213.994 426.244 213.695 427.054H213.61V425.818H212.396V434ZM221.407 434.17C223.069 434.17 224.284 433.339 224.667 432.104L223.453 431.763C223.133 432.615 222.393 433.041 221.407 433.041C219.932 433.041 218.914 432.088 218.856 430.335H224.795V429.803C224.795 426.756 222.984 425.712 221.279 425.712C219.063 425.712 217.593 427.459 217.593 429.973C217.593 432.487 219.042 434.17 221.407 434.17ZM218.856 429.249C218.941 427.975 219.841 426.841 221.279 426.841C222.643 426.841 223.517 427.864 223.517 429.249H218.856ZM226.707 434H227.964V428.886C227.964 427.688 228.838 426.841 229.818 426.841C230.771 426.841 231.437 427.464 231.437 428.396V434H232.716V428.673C232.716 427.619 233.376 426.841 234.527 426.841C235.422 426.841 236.189 427.315 236.189 428.524V434H237.446V428.524C237.446 426.601 236.412 425.712 234.953 425.712C233.781 425.712 232.923 426.25 232.503 427.097H232.417C232.013 426.223 231.299 425.712 230.223 425.712C229.157 425.712 228.369 426.223 228.028 427.097H227.922V425.818H226.707V434ZM242.152 434.192C243.58 434.192 244.325 433.425 244.581 432.892H244.645V434H245.902V428.609C245.902 426.01 243.92 425.712 242.876 425.712C241.641 425.712 240.234 426.138 239.595 427.629L240.788 428.055C241.065 427.459 241.721 426.82 242.919 426.82C244.075 426.82 244.645 427.432 244.645 428.482V428.524C244.645 429.131 244.027 429.078 242.536 429.27C241.017 429.467 239.361 429.803 239.361 431.678C239.361 433.276 240.597 434.192 242.152 434.192ZM242.344 433.062C241.342 433.062 240.618 432.615 240.618 431.741C240.618 430.783 241.491 430.484 242.472 430.357C243.004 430.293 244.432 430.143 244.645 429.888V431.038C244.645 432.061 243.835 433.062 242.344 433.062ZM248.196 434H249.454V425.818H248.196V434ZM248.836 424.455C249.326 424.455 249.731 424.071 249.731 423.602C249.731 423.134 249.326 422.75 248.836 422.75C248.346 422.75 247.941 423.134 247.941 423.602C247.941 424.071 248.346 424.455 248.836 424.455ZM253.013 423.091H251.756V434H253.013V423.091ZM261.601 436.876C262.688 436.876 264.073 436.557 264.733 436.28L264.435 435.3C264.051 435.428 262.816 435.854 261.644 435.854C258 435.854 256.061 433.808 256.061 430.186C256.061 426.628 258.043 424.497 261.388 424.497C264.776 424.497 266.374 426.884 266.374 429.27C266.374 431.699 266.118 432.786 265.032 432.786C264.392 432.786 264.051 432.253 264.051 431.656V426.841H262.922V427.438H262.858C262.709 426.969 261.878 426.564 260.813 426.67C259.215 426.841 258 428.162 258 430.08C258 432.104 258.959 433.659 260.813 433.723C262.027 433.766 262.666 433.169 262.922 432.551H262.986C263.114 433.467 264.264 433.787 265.01 433.787C267.269 433.787 267.482 431.358 267.482 429.291C267.482 426.372 265.436 423.496 261.452 423.496C257.34 423.496 254.889 425.989 254.889 430.143C254.889 434.447 257.255 436.876 261.601 436.876ZM260.983 432.636C259.598 432.636 259.108 431.379 259.108 430.016C259.108 428.78 259.811 427.714 261.026 427.714C262.304 427.714 262.986 428.226 262.986 430.016C262.986 431.784 262.411 432.636 260.983 432.636ZM276.991 426.5H278.355C277.95 424.391 276.182 422.942 273.881 422.942C271.084 422.942 269.108 425.094 269.108 428.545C269.108 431.997 271.068 434.149 273.966 434.149C276.565 434.149 278.419 432.418 278.419 429.717V428.545H274.264V429.717H277.14C277.103 431.678 275.814 432.913 273.966 432.913C271.942 432.913 270.386 431.379 270.386 428.545C270.386 425.712 271.942 424.178 273.881 424.178C275.457 424.178 276.528 425.067 276.991 426.5ZM280.511 434H281.768V428.886C281.768 427.688 282.642 426.841 283.622 426.841C284.575 426.841 285.241 427.464 285.241 428.396V434H286.519V428.673C286.519 427.619 287.18 426.841 288.331 426.841C289.225 426.841 289.992 427.315 289.992 428.524V434H291.25V428.524C291.25 426.601 290.216 425.712 288.757 425.712C287.585 425.712 286.727 426.25 286.306 427.097H286.221C285.816 426.223 285.103 425.712 284.027 425.712C282.961 425.712 282.173 426.223 281.832 427.097H281.725V425.818H280.511V434ZM295.956 434.192C297.383 434.192 298.129 433.425 298.385 432.892H298.449V434H299.706V428.609C299.706 426.01 297.724 425.712 296.68 425.712C295.444 425.712 294.038 426.138 293.399 427.629L294.592 428.055C294.869 427.459 295.524 426.82 296.723 426.82C297.879 426.82 298.449 427.432 298.449 428.482V428.524C298.449 429.131 297.831 429.078 296.339 429.27C294.821 429.467 293.165 429.803 293.165 431.678C293.165 433.276 294.4 434.192 295.956 434.192ZM296.147 433.062C295.146 433.062 294.422 432.615 294.422 431.741C294.422 430.783 295.295 430.484 296.275 430.357C296.808 430.293 298.236 430.143 298.449 429.888V431.038C298.449 432.061 297.639 433.062 296.147 433.062ZM302 434H303.257V425.818H302V434ZM302.639 424.455C303.129 424.455 303.534 424.071 303.534 423.602C303.534 423.134 303.129 422.75 302.639 422.75C302.149 422.75 301.744 423.134 301.744 423.602C301.744 424.071 302.149 424.455 302.639 424.455ZM306.817 423.091H305.56V434H306.817V423.091ZM310.036 434.085C310.563 434.085 310.994 433.654 310.994 433.126C310.994 432.599 310.563 432.168 310.036 432.168C309.508 432.168 309.077 432.599 309.077 433.126C309.077 433.654 309.508 434.085 310.036 434.085ZM322.199 426.5C321.794 424.263 320.004 422.942 317.81 422.942C315.019 422.942 312.994 425.094 312.994 428.545C312.994 431.997 315.019 434.149 317.81 434.149C320.004 434.149 321.794 432.828 322.199 430.591H320.878C320.558 432.104 319.259 432.913 317.81 432.913C315.828 432.913 314.273 431.379 314.273 428.545C314.273 425.712 315.828 424.178 317.81 424.178C319.259 424.178 320.558 424.987 320.878 426.5H322.199ZM327.487 434.17C329.703 434.17 331.195 432.487 331.195 429.952C331.195 427.395 329.703 425.712 327.487 425.712C325.271 425.712 323.78 427.395 323.78 429.952C323.78 432.487 325.271 434.17 327.487 434.17ZM327.487 433.041C325.804 433.041 325.037 431.592 325.037 429.952C325.037 428.311 325.804 426.841 327.487 426.841C329.17 426.841 329.937 428.311 329.937 429.952C329.937 431.592 329.17 433.041 327.487 433.041ZM333.113 434H334.371V428.886C334.371 427.688 335.244 426.841 336.224 426.841C337.178 426.841 337.844 427.464 337.844 428.396V434H339.122V428.673C339.122 427.619 339.782 426.841 340.933 426.841C341.828 426.841 342.595 427.315 342.595 428.524V434H343.852V428.524C343.852 426.601 342.819 425.712 341.359 425.712C340.187 425.712 339.33 426.25 338.909 427.097H338.824C338.419 426.223 337.705 425.712 336.629 425.712C335.564 425.712 334.775 426.223 334.434 427.097H334.328V425.818H333.113V434Z" fill="#767676"/>
<path d="M33.5781 464.348H35.483C35.4254 462.251 33.5717 460.73 30.9126 460.73C28.2855 460.73 26.272 462.232 26.272 464.489C26.272 466.31 27.576 467.378 29.679 467.947L31.2259 468.369C32.6257 468.739 33.706 469.2 33.706 470.363C33.706 471.641 32.4851 472.485 30.804 472.485C29.2827 472.485 28.017 471.808 27.902 470.382H25.9205C26.0483 472.754 27.8828 474.217 30.8168 474.217C33.8913 474.217 35.6619 472.6 35.6619 470.382C35.6619 468.023 33.5589 467.109 31.897 466.7L30.6186 466.368C29.5959 466.106 28.2344 465.626 28.2408 464.374C28.2408 463.261 29.2571 462.437 30.8679 462.437C32.37 462.437 33.4375 463.14 33.5781 464.348ZM37.8688 474H39.78V470.516L40.7324 469.564L44.0691 474H46.415L42.1706 468.394L46.1465 464.182H43.8581L39.9462 468.337H39.78V460.909H37.8688V474ZM49.1491 477.682C50.728 477.682 51.7251 476.857 52.294 475.31L56.353 464.201L54.2884 464.182L51.8018 471.801H51.6996L49.2131 464.182H47.1676L50.7599 474.128L50.5234 474.78C50.0376 476.084 49.3537 476.192 48.3054 475.905L47.8452 477.471C48.0753 477.573 48.5739 477.682 49.1491 477.682ZM58.1539 477.682H60.0652V472.472H60.1802C60.5254 473.099 61.2285 474.192 63.0183 474.192C65.3961 474.192 67.122 472.287 67.122 469.11C67.122 465.927 65.3706 464.054 62.9991 464.054C61.1774 464.054 60.519 465.166 60.1802 465.773H60.0204V464.182H58.1539V477.682ZM60.0268 469.091C60.0268 467.039 60.9217 465.678 62.59 465.678C64.3223 465.678 65.1916 467.141 65.1916 469.091C65.1916 471.06 64.2967 472.562 62.59 472.562C60.9473 472.562 60.0268 471.156 60.0268 469.091ZM73.4949 474.198C75.6362 474.198 77.1511 473.143 77.5858 471.545L75.7768 471.219C75.4316 472.146 74.6007 472.619 73.514 472.619C71.8777 472.619 70.7782 471.558 70.7271 469.666H77.7072V468.989C77.7072 465.441 75.5851 464.054 73.3606 464.054C70.6248 464.054 68.8223 466.138 68.8223 469.155C68.8223 472.204 70.5993 474.198 73.4949 474.198ZM70.7335 468.234C70.8102 466.841 71.8201 465.633 73.3734 465.633C74.8564 465.633 75.8279 466.732 75.8343 468.234H70.7335ZM81.087 466.975C81.7837 466.975 82.3654 466.406 82.3654 465.697C82.3654 465 81.7837 464.425 81.087 464.425C80.3839 464.425 79.8086 465 79.8086 465.697C79.8086 466.406 80.3839 466.975 81.087 466.975ZM81.087 474.121C81.7837 474.121 82.3654 473.553 82.3654 472.843C82.3654 472.146 81.7837 471.571 81.087 471.571C80.3839 471.571 79.8086 472.146 79.8086 472.843C79.8086 473.553 80.3839 474.121 81.087 474.121Z" fill="#767676"/>
<path d="M235.307 474.876C236.394 474.876 237.779 474.557 238.439 474.28L238.141 473.3C237.757 473.428 236.522 473.854 235.35 473.854C231.706 473.854 229.767 471.808 229.767 468.186C229.767 464.628 231.749 462.497 235.094 462.497C238.482 462.497 240.08 464.884 240.08 467.27C240.08 469.699 239.824 470.786 238.738 470.786C238.098 470.786 237.757 470.253 237.757 469.656V464.841H236.628V465.438H236.564C236.415 464.969 235.584 464.564 234.519 464.67C232.921 464.841 231.706 466.162 231.706 468.08C231.706 470.104 232.665 471.659 234.519 471.723C235.733 471.766 236.373 471.169 236.628 470.551H236.692C236.82 471.467 237.971 471.787 238.716 471.787C240.975 471.787 241.188 469.358 241.188 467.291C241.188 464.372 239.142 461.496 235.158 461.496C231.046 461.496 228.596 463.989 228.596 468.143C228.596 472.447 230.961 474.876 235.307 474.876ZM234.689 470.636C233.304 470.636 232.814 469.379 232.814 468.016C232.814 466.78 233.517 465.714 234.732 465.714C236.01 465.714 236.692 466.226 236.692 468.016C236.692 469.784 236.117 470.636 234.689 470.636ZM242.302 461.091L246.244 467.504V472H247.565V467.504L251.507 461.091H249.994L246.969 466.183H246.841L243.815 461.091H242.302ZM256.369 472.17C258.585 472.17 260.076 470.487 260.076 467.952C260.076 465.395 258.585 463.712 256.369 463.712C254.153 463.712 252.662 465.395 252.662 467.952C252.662 470.487 254.153 472.17 256.369 472.17ZM256.369 471.041C254.686 471.041 253.919 469.592 253.919 467.952C253.919 466.311 254.686 464.841 256.369 464.841C258.052 464.841 258.819 466.311 258.819 467.952C258.819 469.592 258.052 471.041 256.369 471.041ZM267.152 468.655C267.152 470.189 265.98 470.892 265.042 470.892C263.998 470.892 263.252 470.125 263.252 468.932V463.818H261.995V469.017C261.995 471.105 263.103 472.107 264.637 472.107C265.873 472.107 266.683 471.446 267.066 470.615H267.152V472H268.409V463.818H267.152V468.655ZM270.711 472H271.968V466.822C271.968 465.714 272.842 464.905 274.035 464.905C274.371 464.905 274.717 464.969 274.802 464.99V463.712C274.658 463.701 274.328 463.69 274.142 463.69C273.161 463.69 272.309 464.244 272.011 465.054H271.926V463.818H270.711V472ZM281.448 468.655C281.448 470.189 280.277 470.892 279.339 470.892C278.295 470.892 277.549 470.125 277.549 468.932V463.818H276.292V469.017C276.292 471.105 277.4 472.107 278.934 472.107C280.17 472.107 280.98 471.446 281.363 470.615H281.448V472H282.706V463.818H281.448V468.655ZM290.803 465.651C290.409 464.489 289.525 463.712 287.906 463.712C286.18 463.712 284.901 464.692 284.901 466.077C284.901 467.206 285.573 467.962 287.075 468.314L288.438 468.634C289.264 468.825 289.653 469.219 289.653 469.784C289.653 470.487 288.907 471.062 287.735 471.062C286.707 471.062 286.063 470.62 285.839 469.741L284.646 470.04C284.939 471.43 286.084 472.17 287.757 472.17C289.658 472.17 290.953 471.132 290.953 469.72C290.953 468.58 290.239 467.861 288.779 467.504L287.565 467.206C286.595 466.966 286.159 466.641 286.159 466.013C286.159 465.31 286.904 464.798 287.906 464.798C289.003 464.798 289.456 465.406 289.674 465.97L290.803 465.651ZM296.275 472.17C297.937 472.17 299.152 471.339 299.535 470.104L298.321 469.763C298.001 470.615 297.261 471.041 296.275 471.041C294.8 471.041 293.782 470.088 293.724 468.335H299.663V467.803C299.663 464.756 297.852 463.712 296.147 463.712C293.932 463.712 292.461 465.459 292.461 467.973C292.461 470.487 293.91 472.17 296.275 472.17ZM293.724 467.249C293.809 465.975 294.709 464.841 296.147 464.841C297.511 464.841 298.385 465.864 298.385 467.249H293.724ZM301.575 472H302.832V466.822C302.832 465.714 303.706 464.905 304.899 464.905C305.235 464.905 305.581 464.969 305.666 464.99V463.712C305.522 463.701 305.192 463.69 305.006 463.69C304.026 463.69 303.173 464.244 302.875 465.054H302.79V463.818H301.575V472ZM308.414 467.078C308.414 465.651 309.298 464.841 310.502 464.841C311.668 464.841 312.377 465.603 312.377 466.886V472H313.634V466.801C313.634 464.713 312.52 463.712 310.864 463.712C309.628 463.712 308.861 464.266 308.477 465.097H308.371V463.818H307.156V472H308.414V467.078ZM318.339 472.192C319.766 472.192 320.512 471.425 320.767 470.892H320.831V472H322.089V466.609C322.089 464.01 320.107 463.712 319.063 463.712C317.827 463.712 316.421 464.138 315.782 465.629L316.975 466.055C317.252 465.459 317.907 464.82 319.106 464.82C320.261 464.82 320.831 465.432 320.831 466.482V466.524C320.831 467.131 320.214 467.078 318.722 467.27C317.204 467.467 315.547 467.803 315.547 469.678C315.547 471.276 316.783 472.192 318.339 472.192ZM318.53 471.062C317.529 471.062 316.804 470.615 316.804 469.741C316.804 468.783 317.678 468.484 318.658 468.357C319.191 468.293 320.618 468.143 320.831 467.888V469.038C320.831 470.061 320.022 471.062 318.53 471.062ZM324.383 472H325.64V466.886C325.64 465.688 326.514 464.841 327.494 464.841C328.447 464.841 329.113 465.464 329.113 466.396V472H330.392V466.673C330.392 465.619 331.052 464.841 332.203 464.841C333.097 464.841 333.865 465.315 333.865 466.524V472H335.122V466.524C335.122 464.601 334.088 463.712 332.629 463.712C331.457 463.712 330.599 464.25 330.178 465.097H330.093C329.688 464.223 328.975 463.712 327.899 463.712C326.833 463.712 326.045 464.223 325.704 465.097H325.597V463.818H324.383V472ZM340.85 472.17C342.512 472.17 343.727 471.339 344.11 470.104L342.896 469.763C342.576 470.615 341.836 471.041 340.85 471.041C339.375 471.041 338.358 470.088 338.299 468.335H344.238V467.803C344.238 464.756 342.427 463.712 340.723 463.712C338.507 463.712 337.037 465.459 337.037 467.973C337.037 470.487 338.485 472.17 340.85 472.17ZM338.299 467.249C338.384 465.975 339.284 464.841 340.723 464.841C342.086 464.841 342.96 465.864 342.96 467.249H338.299Z" fill="#767676"/>
<path d="M25.7926 500.609H29.8707V512H31.8395V500.609H35.924V498.909H25.7926V500.609ZM40.8171 512.198C42.9585 512.198 44.4734 511.143 44.908 509.545L43.0991 509.219C42.7539 510.146 41.9229 510.619 40.8363 510.619C39.1999 510.619 38.1005 509.558 38.0494 507.666H45.0295V506.989C45.0295 503.441 42.9073 502.054 40.6829 502.054C37.9471 502.054 36.1445 504.138 36.1445 507.155C36.1445 510.204 37.9215 512.198 40.8171 512.198ZM38.0558 506.234C38.1325 504.841 39.1424 503.633 40.6957 503.633C42.1786 503.633 43.1502 504.732 43.1566 506.234H38.0558ZM49.0613 498.909H47.15V512H49.0613V498.909ZM55.864 512.198C58.0053 512.198 59.5202 511.143 59.9549 509.545L58.146 509.219C57.8008 510.146 56.9698 510.619 55.8832 510.619C54.2468 510.619 53.1474 509.558 53.0962 507.666H60.0764V506.989C60.0764 503.441 57.9542 502.054 55.7298 502.054C52.994 502.054 51.1914 504.138 51.1914 507.155C51.1914 510.204 52.9684 512.198 55.864 512.198ZM53.1026 506.234C53.1793 504.841 54.1893 503.633 55.7425 503.633C57.2255 503.633 58.1971 504.732 58.2035 506.234H53.1026ZM66.3134 515.886C68.8127 515.886 70.7431 514.742 70.7431 512.217V502.182H68.8702V503.773H68.7296C68.3908 503.166 67.7132 502.054 65.8851 502.054C63.5137 502.054 61.7686 503.927 61.7686 507.053C61.7686 510.185 63.552 511.853 65.8723 511.853C67.6749 511.853 68.3716 510.837 68.7168 510.21H68.8382V512.141C68.8382 513.681 67.7836 514.346 66.3326 514.346C64.7409 514.346 64.1209 513.547 63.7821 512.984L62.1394 513.662C62.6571 514.864 63.9675 515.886 66.3134 515.886ZM66.2942 510.268C64.5875 510.268 63.699 508.957 63.699 507.027C63.699 505.141 64.5684 503.678 66.2942 503.678C67.9625 503.678 68.8574 505.039 68.8574 507.027C68.8574 509.053 67.9434 510.268 66.2942 510.268ZM73.3063 512H75.2175V506.004C75.2175 504.719 76.2083 503.793 77.5634 503.793C77.9597 503.793 78.4071 503.863 78.5605 503.908V502.08C78.3688 502.054 77.9917 502.035 77.7488 502.035C76.5982 502.035 75.6138 502.687 75.2559 503.741H75.1536V502.182H73.3063V512ZM82.9838 512.217C84.6074 512.217 85.5215 511.393 85.8858 510.658H85.9625V512H87.829V505.48C87.829 502.623 85.579 502.054 84.0194 502.054C82.2424 502.054 80.606 502.77 79.9668 504.56L81.763 504.969C82.0442 504.272 82.7601 503.601 84.0449 503.601C85.2786 503.601 85.9114 504.246 85.9114 505.359V505.403C85.9114 506.1 85.1955 506.087 83.4313 506.292C81.5712 506.509 79.6664 506.995 79.6664 509.226C79.6664 511.156 81.1174 512.217 82.9838 512.217ZM83.3993 510.683C82.3191 510.683 81.5392 510.197 81.5392 509.251C81.5392 508.229 82.4469 507.864 83.5527 507.717C84.1728 507.634 85.6429 507.468 85.9178 507.193V508.459C85.9178 509.622 84.9909 510.683 83.3993 510.683ZM90.3746 512H92.2859V505.947C92.2859 504.624 93.2127 503.703 94.2994 503.703C95.3604 503.703 96.0955 504.406 96.0955 505.474V512H98.0004V505.742C98.0004 504.56 98.7227 503.703 99.9691 503.703C100.979 503.703 101.81 504.266 101.81 505.595V512H103.721V505.416C103.721 503.173 102.468 502.054 100.691 502.054C99.2788 502.054 98.2177 502.732 97.7447 503.78H97.6424C97.2141 502.706 96.3129 502.054 95.0025 502.054C93.7049 502.054 92.7397 502.7 92.3306 503.78H92.2092V502.182H90.3746V512ZM107.542 504.975C108.239 504.975 108.82 504.406 108.82 503.697C108.82 503 108.239 502.425 107.542 502.425C106.839 502.425 106.264 503 106.264 503.697C106.264 504.406 106.839 504.975 107.542 504.975ZM107.542 512.121C108.239 512.121 108.82 511.553 108.82 510.843C108.82 510.146 108.239 509.571 107.542 509.571C106.839 509.571 106.264 510.146 106.264 510.843C106.264 511.553 106.839 512.121 107.542 512.121Z" fill="#767676"/>
<path d="M235.307 512.876C236.394 512.876 237.779 512.557 238.439 512.28L238.141 511.3C237.757 511.428 236.522 511.854 235.35 511.854C231.706 511.854 229.767 509.808 229.767 506.186C229.767 502.628 231.749 500.497 235.094 500.497C238.482 500.497 240.08 502.884 240.08 505.27C240.08 507.699 239.824 508.786 238.738 508.786C238.098 508.786 237.757 508.253 237.757 507.656V502.841H236.628V503.438H236.564C236.415 502.969 235.584 502.564 234.519 502.67C232.921 502.841 231.706 504.162 231.706 506.08C231.706 508.104 232.665 509.659 234.519 509.723C235.733 509.766 236.373 509.169 236.628 508.551H236.692C236.82 509.467 237.971 509.787 238.716 509.787C240.975 509.787 241.188 507.358 241.188 505.291C241.188 502.372 239.142 499.496 235.158 499.496C231.046 499.496 228.596 501.989 228.596 506.143C228.596 510.447 230.961 512.876 235.307 512.876ZM234.689 508.636C233.304 508.636 232.814 507.379 232.814 506.016C232.814 504.78 233.517 503.714 234.732 503.714C236.01 503.714 236.692 504.226 236.692 506.016C236.692 507.784 236.117 508.636 234.689 508.636ZM242.302 499.091L246.244 505.504V510H247.565V505.504L251.507 499.091H249.994L246.969 504.183H246.841L243.815 499.091H242.302ZM256.369 510.17C258.585 510.17 260.076 508.487 260.076 505.952C260.076 503.395 258.585 501.712 256.369 501.712C254.153 501.712 252.662 503.395 252.662 505.952C252.662 508.487 254.153 510.17 256.369 510.17ZM256.369 509.041C254.686 509.041 253.919 507.592 253.919 505.952C253.919 504.311 254.686 502.841 256.369 502.841C258.052 502.841 258.819 504.311 258.819 505.952C258.819 507.592 258.052 509.041 256.369 509.041ZM267.152 506.655C267.152 508.189 265.98 508.892 265.042 508.892C263.998 508.892 263.252 508.125 263.252 506.932V501.818H261.995V507.017C261.995 509.105 263.103 510.107 264.637 510.107C265.873 510.107 266.683 509.446 267.066 508.615H267.152V510H268.409V501.818H267.152V506.655ZM270.711 510H271.968V504.822C271.968 503.714 272.842 502.905 274.035 502.905C274.371 502.905 274.717 502.969 274.802 502.99V501.712C274.658 501.701 274.328 501.69 274.142 501.69C273.161 501.69 272.309 502.244 272.011 503.054H271.926V501.818H270.711V510ZM281.448 506.655C281.448 508.189 280.277 508.892 279.339 508.892C278.295 508.892 277.549 508.125 277.549 506.932V501.818H276.292V507.017C276.292 509.105 277.4 510.107 278.934 510.107C280.17 510.107 280.98 509.446 281.363 508.615H281.448V510H282.706V501.818H281.448V506.655ZM290.803 503.651C290.409 502.489 289.525 501.712 287.906 501.712C286.18 501.712 284.901 502.692 284.901 504.077C284.901 505.206 285.573 505.962 287.075 506.314L288.438 506.634C289.264 506.825 289.653 507.219 289.653 507.784C289.653 508.487 288.907 509.062 287.735 509.062C286.707 509.062 286.063 508.62 285.839 507.741L284.646 508.04C284.939 509.43 286.084 510.17 287.757 510.17C289.658 510.17 290.953 509.132 290.953 507.72C290.953 506.58 290.239 505.861 288.779 505.504L287.565 505.206C286.595 504.966 286.159 504.641 286.159 504.013C286.159 503.31 286.904 502.798 287.906 502.798C289.003 502.798 289.456 503.406 289.674 503.97L290.803 503.651ZM296.275 510.17C297.937 510.17 299.152 509.339 299.535 508.104L298.321 507.763C298.001 508.615 297.261 509.041 296.275 509.041C294.8 509.041 293.782 508.088 293.724 506.335H299.663V505.803C299.663 502.756 297.852 501.712 296.147 501.712C293.932 501.712 292.461 503.459 292.461 505.973C292.461 508.487 293.91 510.17 296.275 510.17ZM293.724 505.249C293.809 503.975 294.709 502.841 296.147 502.841C297.511 502.841 298.385 503.864 298.385 505.249H293.724ZM301.575 510H302.832V504.822C302.832 503.714 303.706 502.905 304.899 502.905C305.235 502.905 305.581 502.969 305.666 502.99V501.712C305.522 501.701 305.192 501.69 305.006 501.69C304.026 501.69 303.173 502.244 302.875 503.054H302.79V501.818H301.575V510ZM308.414 505.078C308.414 503.651 309.298 502.841 310.502 502.841C311.668 502.841 312.377 503.603 312.377 504.886V510H313.634V504.801C313.634 502.713 312.52 501.712 310.864 501.712C309.628 501.712 308.861 502.266 308.477 503.097H308.371V501.818H307.156V510H308.414V505.078ZM318.339 510.192C319.766 510.192 320.512 509.425 320.767 508.892H320.831V510H322.089V504.609C322.089 502.01 320.107 501.712 319.063 501.712C317.827 501.712 316.421 502.138 315.782 503.629L316.975 504.055C317.252 503.459 317.907 502.82 319.106 502.82C320.261 502.82 320.831 503.432 320.831 504.482V504.524C320.831 505.131 320.214 505.078 318.722 505.27C317.204 505.467 315.547 505.803 315.547 507.678C315.547 509.276 316.783 510.192 318.339 510.192ZM318.53 509.062C317.529 509.062 316.804 508.615 316.804 507.741C316.804 506.783 317.678 506.484 318.658 506.357C319.191 506.293 320.618 506.143 320.831 505.888V507.038C320.831 508.061 320.022 509.062 318.53 509.062ZM324.383 510H325.64V504.886C325.64 503.688 326.514 502.841 327.494 502.841C328.447 502.841 329.113 503.464 329.113 504.396V510H330.392V504.673C330.392 503.619 331.052 502.841 332.203 502.841C333.097 502.841 333.865 503.315 333.865 504.524V510H335.122V504.524C335.122 502.601 334.088 501.712 332.629 501.712C331.457 501.712 330.599 502.25 330.178 503.097H330.093C329.688 502.223 328.975 501.712 327.899 501.712C326.833 501.712 326.045 502.223 325.704 503.097H325.597V501.818H324.383V510ZM340.85 510.17C342.512 510.17 343.727 509.339 344.11 508.104L342.896 507.763C342.576 508.615 341.836 509.041 340.85 509.041C339.375 509.041 338.358 508.088 338.299 506.335H344.238V505.803C344.238 502.756 342.427 501.712 340.723 501.712C338.507 501.712 337.037 503.459 337.037 505.973C337.037 508.487 338.485 510.17 340.85 510.17ZM338.299 505.249C338.384 503.975 339.284 502.841 340.723 502.841C342.086 502.841 342.96 503.864 342.96 505.249H338.299Z" fill="#767676"/>
<circle cx="185" cy="363" r="20" fill="#FFB400"/>
<g clip-path="url(#clip0_2_971)">
<path d="M178.25 356.25H191.75C191.949 356.25 192.14 356.329 192.28 356.47C192.421 356.61 192.5 356.801 192.5 357V369C192.5 369.199 192.421 369.39 192.28 369.53C192.14 369.671 191.949 369.75 191.75 369.75H178.25C178.051 369.75 177.86 369.671 177.72 369.53C177.579 369.39 177.5 369.199 177.5 369V357C177.5 356.801 177.579 356.61 177.72 356.47C177.86 356.329 178.051 356.25 178.25 356.25ZM185.045 362.762L180.236 358.678L179.265 359.822L185.055 364.738L190.74 359.818L189.76 358.683L185.046 362.762H185.045Z" fill="#2B2B2B"/>
</g>
<rect y="546" width="370" height="210" fill="white"/>
<path d="M33.5781 649.348H35.483C35.4254 647.251 33.5717 645.73 30.9126 645.73C28.2855 645.73 26.272 647.232 26.272 649.489C26.272 651.31 27.576 652.378 29.679 652.947L31.2259 653.369C32.6257 653.739 33.706 654.2 33.706 655.363C33.706 656.641 32.4851 657.485 30.804 657.485C29.2827 657.485 28.017 656.808 27.902 655.382H25.9205C26.0483 657.754 27.8828 659.217 30.8168 659.217C33.8913 659.217 35.6619 657.6 35.6619 655.382C35.6619 653.023 33.5589 652.109 31.897 651.7L30.6186 651.368C29.5959 651.106 28.2344 650.626 28.2408 649.374C28.2408 648.261 29.2571 647.437 30.8679 647.437C32.37 647.437 33.4375 648.14 33.5781 649.348ZM44.0882 654.928C44.0946 656.597 42.8546 657.389 41.7807 657.389C40.5982 657.389 39.78 656.533 39.78 655.197V649.182H37.8688V655.427C37.8688 657.862 39.2047 659.128 41.0904 659.128C42.5669 659.128 43.5705 658.348 44.0243 657.3H44.1266V659H46.0059V649.182H44.0882V654.928ZM48.5739 662.682H50.4851V657.472H50.6001C50.9453 658.099 51.6484 659.192 53.4382 659.192C55.8161 659.192 57.5419 657.287 57.5419 654.11C57.5419 650.927 55.7905 649.054 53.419 649.054C51.5973 649.054 50.9389 650.166 50.6001 650.773H50.4403V649.182H48.5739V662.682ZM50.4467 654.091C50.4467 652.039 51.3416 650.678 53.0099 650.678C54.7422 650.678 55.6115 652.141 55.6115 654.091C55.6115 656.06 54.7166 657.562 53.0099 657.562C51.3672 657.562 50.4467 656.156 50.4467 654.091ZM59.6832 662.682H61.5945V657.472H61.7095C62.0547 658.099 62.7578 659.192 64.5476 659.192C66.9254 659.192 68.6513 657.287 68.6513 654.11C68.6513 650.927 66.8999 649.054 64.5284 649.054C62.7067 649.054 62.0483 650.166 61.7095 650.773H61.5497V649.182H59.6832V662.682ZM61.5561 654.091C61.5561 652.039 62.451 650.678 64.1193 650.678C65.8516 650.678 66.7209 652.141 66.7209 654.091C66.7209 656.06 65.826 657.562 64.1193 657.562C62.4766 657.562 61.5561 656.156 61.5561 654.091ZM74.9283 659.198C77.696 659.198 79.505 657.172 79.505 654.136C79.505 651.08 77.696 649.054 74.9283 649.054C72.1605 649.054 70.3516 651.08 70.3516 654.136C70.3516 657.172 72.1605 659.198 74.9283 659.198ZM74.9347 657.594C73.1257 657.594 72.282 656.015 72.282 654.129C72.282 652.25 73.1257 650.652 74.9347 650.652C76.7308 650.652 77.5746 652.25 77.5746 654.129C77.5746 656.015 76.7308 657.594 74.9347 657.594ZM81.6383 659H83.5495V653.004C83.5495 651.719 84.5403 650.793 85.8954 650.793C86.2917 650.793 86.7392 650.863 86.8926 650.908V649.08C86.7008 649.054 86.3237 649.035 86.0808 649.035C84.9302 649.035 83.9458 649.687 83.5879 650.741H83.4856V649.182H81.6383V659ZM93.7097 649.182H91.6962V646.83H89.785V649.182H88.3468V650.716H89.785V656.513C89.7786 658.297 91.1401 659.16 92.6486 659.128C93.2559 659.121 93.665 659.006 93.8887 658.923L93.5435 657.344C93.4157 657.37 93.1792 657.428 92.8723 657.428C92.2523 657.428 91.6962 657.223 91.6962 656.117V650.716H93.7097V649.182ZM107.881 649.348H109.786C109.728 647.251 107.874 645.73 105.215 645.73C102.588 645.73 100.575 647.232 100.575 649.489C100.575 651.31 101.879 652.378 103.982 652.947L105.529 653.369C106.928 653.739 108.009 654.2 108.009 655.363C108.009 656.641 106.788 657.485 105.107 657.485C103.585 657.485 102.32 656.808 102.205 655.382H100.223C100.351 657.754 102.186 659.217 105.119 659.217C108.194 659.217 109.965 657.6 109.965 655.382C109.965 653.023 107.862 652.109 106.2 651.7L104.921 651.368C103.899 651.106 102.537 650.626 102.544 649.374C102.544 648.261 103.56 647.437 105.171 647.437C106.673 647.437 107.74 648.14 107.881 649.348ZM116.403 659.198C118.544 659.198 120.059 658.143 120.494 656.545L118.685 656.219C118.34 657.146 117.509 657.619 116.422 657.619C114.786 657.619 113.686 656.558 113.635 654.666H120.615V653.989C120.615 650.441 118.493 649.054 116.269 649.054C113.533 649.054 111.73 651.138 111.73 654.155C111.73 657.204 113.507 659.198 116.403 659.198ZM113.642 653.234C113.718 651.841 114.728 650.633 116.282 650.633C117.765 650.633 118.736 651.732 118.743 653.234H113.642ZM122.736 659H124.647V653.004C124.647 651.719 125.638 650.793 126.993 650.793C127.389 650.793 127.837 650.863 127.99 650.908V649.08C127.798 649.054 127.421 649.035 127.178 649.035C126.028 649.035 125.044 649.687 124.686 650.741H124.583V649.182H122.736V659ZM138.342 649.182H136.29L133.81 656.737H133.708L131.221 649.182H129.17L132.736 659H134.782L138.342 649.182ZM140.138 659H142.05V649.182H140.138V659ZM141.104 647.667C141.762 647.667 142.312 647.156 142.312 646.529C142.312 645.903 141.762 645.385 141.104 645.385C140.439 645.385 139.895 645.903 139.895 646.529C139.895 647.156 140.439 647.667 141.104 647.667ZM148.756 659.198C151.077 659.198 152.579 657.805 152.79 655.893H150.93C150.687 656.955 149.862 657.581 148.769 657.581C147.152 657.581 146.11 656.232 146.11 654.091C146.11 651.988 147.171 650.665 148.769 650.665C149.984 650.665 150.725 651.432 150.93 652.352H152.79C152.585 650.371 150.968 649.054 148.737 649.054C145.969 649.054 144.18 651.138 144.18 654.136C144.18 657.095 145.906 659.198 148.756 659.198ZM159.065 659.198C161.206 659.198 162.721 658.143 163.156 656.545L161.347 656.219C161.002 657.146 160.171 657.619 159.084 657.619C157.448 657.619 156.349 656.558 156.297 654.666H163.278V653.989C163.278 650.441 161.155 649.054 158.931 649.054C156.195 649.054 154.393 651.138 154.393 654.155C154.393 657.204 156.17 659.198 159.065 659.198ZM156.304 653.234C156.381 651.841 157.39 650.633 158.944 650.633C160.427 650.633 161.398 651.732 161.405 653.234H156.304ZM172.755 651.579C172.359 650.051 171.164 649.054 169.042 649.054C166.824 649.054 165.251 650.224 165.251 651.962C165.251 653.356 166.095 654.283 167.936 654.692L169.598 655.056C170.544 655.267 170.985 655.689 170.985 656.303C170.985 657.063 170.173 657.658 168.92 657.658C167.776 657.658 167.041 657.165 166.811 656.2L164.963 656.482C165.283 658.22 166.728 659.198 168.933 659.198C171.304 659.198 172.947 657.939 172.947 656.162C172.947 654.775 172.065 653.918 170.262 653.503L168.703 653.145C167.623 652.889 167.156 652.525 167.162 651.86C167.156 651.106 167.974 650.569 169.061 650.569C170.25 650.569 170.799 651.227 171.023 651.886L172.755 651.579ZM176.308 651.975C177.004 651.975 177.586 651.406 177.586 650.697C177.586 650 177.004 649.425 176.308 649.425C175.605 649.425 175.029 650 175.029 650.697C175.029 651.406 175.605 651.975 176.308 651.975ZM176.308 659.121C177.004 659.121 177.586 658.553 177.586 657.843C177.586 657.146 177.004 656.571 176.308 656.571C175.605 656.571 175.029 657.146 175.029 657.843C175.029 658.553 175.605 659.121 176.308 659.121Z" fill="#767676"/>
<path d="M305.594 646.091H304.273L301.546 647.902V649.244L304.209 647.476H304.273V657H305.594V646.091ZM312.141 657.149C314.218 657.149 315.742 655.615 315.742 653.527C315.742 651.412 314.272 649.862 312.269 649.862C311.534 649.862 310.82 650.123 310.372 650.48H310.309L310.692 647.263H315.252V646.091H309.584L308.924 651.46L310.159 651.609C310.612 651.284 311.384 651.05 312.056 651.055C313.446 651.066 314.463 652.121 314.463 653.548C314.463 654.949 313.483 655.977 312.141 655.977C311.022 655.977 310.133 655.258 310.032 654.273H308.753C308.833 655.935 310.266 657.149 312.141 657.149ZM321.544 657.149C323.659 657.149 325.23 655.823 325.23 654.038C325.23 652.653 324.41 651.647 323.035 651.418V651.332C324.138 650.997 324.825 650.091 324.825 648.861C324.825 647.316 323.605 645.942 321.586 645.942C319.701 645.942 318.135 647.103 318.071 648.818H319.349C319.397 647.732 320.431 647.092 321.565 647.092C322.769 647.092 323.547 647.822 323.547 648.925C323.547 650.075 322.646 650.821 321.352 650.821H320.479V651.993H321.352C323.009 651.993 323.93 652.835 323.93 654.038C323.93 655.194 322.923 655.977 321.523 655.977C320.26 655.977 319.259 655.327 319.179 654.273H317.836C317.916 655.988 319.429 657.149 321.544 657.149ZM331.031 657.149C333.236 657.176 334.674 655.514 334.674 653.484C334.674 651.375 333.113 649.862 331.244 649.862C330.12 649.862 329.156 650.411 328.559 651.311H328.474C328.479 648.653 329.513 647.114 331.201 647.114C332.352 647.114 333.044 647.838 333.289 648.818H334.589C334.323 647.124 333.034 645.942 331.201 645.942C328.746 645.942 327.238 648.115 327.238 651.972C327.238 656.004 329.241 657.128 331.031 657.149ZM331.031 655.977C329.662 655.977 328.66 654.811 328.666 653.506C328.671 652.201 329.72 651.034 331.073 651.034C332.41 651.034 333.396 652.131 333.396 653.484C333.396 654.869 332.368 655.977 331.031 655.977ZM340.242 645.942C338.026 645.915 336.598 647.582 336.598 649.585C336.598 651.695 338.154 653.207 340.029 653.207C341.158 653.207 342.117 652.653 342.714 651.759H342.799C342.799 654.443 341.755 655.977 340.071 655.977C338.921 655.977 338.218 655.253 337.983 654.251H336.684C336.939 655.977 338.239 657.149 340.071 657.149C342.522 657.149 344.035 654.976 344.035 651.098C344.035 647.092 342.032 645.963 340.242 645.942ZM340.242 647.114C341.606 647.114 342.607 648.286 342.607 649.564C342.607 650.864 341.542 652.036 340.199 652.036C338.857 652.036 337.877 650.949 337.877 649.585C337.877 648.222 338.9 647.114 340.242 647.114Z" fill="#767676"/>
<path d="M37.8097 689.455C37.8097 685.268 35.304 682.73 31.9162 682.73C28.5156 682.73 26.0163 685.268 26.0163 689.455C26.0163 693.635 28.5156 696.179 31.9162 696.179C35.304 696.179 37.8097 693.641 37.8097 689.455ZM35.8537 689.455C35.8537 692.644 34.1662 694.376 31.9162 694.376C29.6598 694.376 27.9787 692.644 27.9787 689.455C27.9787 686.265 29.6598 684.533 31.9162 684.533C34.1662 684.533 35.8537 686.265 35.8537 689.455ZM44.7914 686.182H42.6756V685.3C42.6756 684.43 43.0336 683.957 43.9668 683.957C44.3631 683.957 44.6444 684.047 44.8233 684.104L45.2708 682.558C45.0023 682.455 44.4462 682.295 43.6728 682.295C42.1195 682.295 40.758 683.203 40.758 685.044V686.182H39.2431V687.716H40.758V696H42.6756V687.716H44.7914V686.182ZM51.4359 686.182H49.3201V685.3C49.3201 684.43 49.6781 683.957 50.6113 683.957C51.0076 683.957 51.2889 684.047 51.4679 684.104L51.9153 682.558C51.6468 682.455 51.0907 682.295 50.3173 682.295C48.764 682.295 47.4025 683.203 47.4025 685.044V686.182H45.8876V687.716H47.4025V696H49.3201V687.716H51.4359V686.182ZM53.4078 696H55.3191V686.182H53.4078V696ZM54.373 684.667C55.0314 684.667 55.5811 684.156 55.5811 683.529C55.5811 682.903 55.0314 682.385 54.373 682.385C53.7083 682.385 53.165 682.903 53.165 683.529C53.165 684.156 53.7083 684.667 54.373 684.667ZM62.0259 696.198C64.3462 696.198 65.8484 694.805 66.0593 692.893H64.1992C63.9563 693.955 63.1317 694.581 62.0387 694.581C60.4215 694.581 59.3796 693.232 59.3796 691.091C59.3796 688.988 60.4407 687.665 62.0387 687.665C63.2532 687.665 63.9947 688.432 64.1992 689.352H66.0593C65.8548 687.371 64.2376 686.054 62.0067 686.054C59.239 686.054 57.4492 688.138 57.4492 691.136C57.4492 694.095 59.1751 696.198 62.0259 696.198ZM72.3347 696.198C74.476 696.198 75.9909 695.143 76.4256 693.545L74.6167 693.219C74.2715 694.146 73.4405 694.619 72.3539 694.619C70.7175 694.619 69.6181 693.558 69.5669 691.666H76.5471V690.989C76.5471 687.441 74.4249 686.054 72.2005 686.054C69.4647 686.054 67.6621 688.138 67.6621 691.155C67.6621 694.204 69.4391 696.198 72.3347 696.198ZM69.5733 690.234C69.65 688.841 70.66 687.633 72.2132 687.633C73.6962 687.633 74.6678 688.732 74.6742 690.234H69.5733ZM79.9268 688.975C80.6236 688.975 81.2053 688.406 81.2053 687.697C81.2053 687 80.6236 686.425 79.9268 686.425C79.2237 686.425 78.6484 687 78.6484 687.697C78.6484 688.406 79.2237 688.975 79.9268 688.975ZM79.9268 696.121C80.6236 696.121 81.2053 695.553 81.2053 694.843C81.2053 694.146 80.6236 693.571 79.9268 693.571C79.2237 693.571 78.6484 694.146 78.6484 694.843C78.6484 695.553 79.2237 696.121 79.9268 696.121Z" fill="#767676"/>
<path d="M189.4 694.254H190.593V691.335H193.513V690.142H190.593V687.223H189.4V690.142H186.481V691.335H189.4V694.254ZM199.48 695.149C201.557 695.149 203.081 693.615 203.081 691.527C203.081 689.412 201.61 687.862 199.608 687.862C198.873 687.862 198.159 688.123 197.711 688.48H197.647L198.031 685.263H202.591V684.091H196.923L196.262 689.46L197.498 689.609C197.951 689.284 198.723 689.05 199.395 689.055C200.785 689.066 201.802 690.121 201.802 691.548C201.802 692.949 200.822 693.977 199.48 693.977C198.361 693.977 197.472 693.258 197.37 692.273H196.092C196.172 693.935 197.605 695.149 199.48 695.149ZM208.691 695.149C210.87 695.149 212.388 693.876 212.398 692.102C212.388 690.723 211.466 689.551 210.289 689.332V689.268C211.312 689.002 211.983 688.001 211.994 686.839C211.983 685.178 210.587 683.942 208.691 683.942C206.773 683.942 205.378 685.178 205.388 686.839C205.378 688.001 206.049 689.002 207.093 689.268V689.332C205.894 689.551 204.973 690.723 204.984 692.102C204.973 693.876 206.491 695.149 208.691 695.149ZM208.691 693.977C207.194 693.977 206.273 693.21 206.283 692.038C206.273 690.808 207.29 689.929 208.691 689.929C210.071 689.929 211.088 690.808 211.099 692.038C211.088 693.21 210.166 693.977 208.691 693.977ZM208.691 688.8C207.498 688.8 206.656 688.054 206.667 686.925C206.656 685.817 207.466 685.092 208.691 685.092C209.895 685.092 210.704 685.817 210.715 686.925C210.704 688.054 209.863 688.8 208.691 688.8ZM219.127 690.398C219.127 693.082 219.852 695.32 221.151 697.216H222.259C221.237 695.81 220.427 692.933 220.427 690.398C220.427 687.862 221.237 684.986 222.259 683.58H221.151C219.852 685.476 219.127 687.713 219.127 690.398ZM227.651 695.149C230.059 695.149 231.444 693.109 231.444 689.545C231.444 686.009 230.038 683.942 227.651 683.942C225.265 683.942 223.859 686.009 223.859 689.545C223.859 693.109 225.244 695.149 227.651 695.149ZM227.651 693.977C226.064 693.977 225.137 692.385 225.137 689.545C225.137 686.712 226.075 685.092 227.651 685.092C229.228 685.092 230.166 686.712 230.166 689.545C230.166 692.385 229.239 693.977 227.651 693.977ZM233.468 695H240.35V693.828H235.279V693.743L237.729 691.122C239.604 689.114 240.158 688.176 240.158 686.967C240.158 685.284 238.795 683.942 236.877 683.942C234.965 683.942 233.511 685.241 233.511 687.159H234.768C234.768 685.918 235.572 685.092 236.835 685.092C238.017 685.092 238.923 685.817 238.923 686.967C238.923 687.974 238.331 688.72 237.069 690.099L233.468 694.041V695ZM246.385 684.091H245.064L242.337 685.902V687.244L245 685.476H245.064V695H246.385V684.091ZM252.229 690.398C252.229 687.713 251.504 685.476 250.205 683.58H249.097C250.119 684.986 250.929 687.862 250.929 690.398C250.929 692.933 250.119 695.81 249.097 697.216H250.205C251.504 695.32 252.229 693.082 252.229 690.398ZM258.643 695.149C260.758 695.149 262.33 693.823 262.33 692.038C262.33 690.653 261.509 689.647 260.135 689.418V689.332C261.238 688.997 261.925 688.091 261.925 686.861C261.925 685.316 260.705 683.942 258.686 683.942C256.8 683.942 255.234 685.103 255.17 686.818H256.449C256.497 685.732 257.53 685.092 258.665 685.092C259.869 685.092 260.646 685.822 260.646 686.925C260.646 688.075 259.746 688.821 258.452 688.821H257.578V689.993H258.452C260.108 689.993 261.03 690.835 261.03 692.038C261.03 693.194 260.023 693.977 258.622 693.977C257.36 693.977 256.358 693.327 256.278 692.273H254.936C255.016 693.988 256.529 695.149 258.643 695.149ZM267.917 695.149C269.995 695.149 271.518 693.615 271.518 691.527C271.518 689.412 270.048 687.862 268.045 687.862C267.31 687.862 266.596 688.123 266.149 688.48H266.085L266.468 685.263H271.028V684.091H265.36L264.7 689.46L265.936 689.609C266.388 689.284 267.161 689.05 267.832 689.055C269.222 689.066 270.24 690.121 270.24 691.548C270.24 692.949 269.26 693.977 267.917 693.977C266.799 693.977 265.909 693.258 265.808 692.273H264.529C264.609 693.935 266.042 695.149 267.917 695.149ZM277.256 695.149C279.462 695.176 280.9 693.514 280.9 691.484C280.9 689.375 279.339 687.862 277.469 687.862C276.345 687.862 275.381 688.411 274.785 689.311H274.699C274.705 686.653 275.738 685.114 277.427 685.114C278.577 685.114 279.27 685.838 279.515 686.818H280.815C280.548 685.124 279.259 683.942 277.427 683.942C274.971 683.942 273.464 686.115 273.464 689.972C273.464 694.004 275.467 695.128 277.256 695.149ZM277.256 693.977C275.887 693.977 274.886 692.811 274.891 691.506C274.897 690.201 275.946 689.034 277.299 689.034C278.636 689.034 279.621 690.131 279.621 691.484C279.621 692.869 278.593 693.977 277.256 693.977ZM290.622 695.149C292.7 695.149 294.223 693.615 294.223 691.527C294.223 689.412 292.753 687.862 290.75 687.862C290.015 687.862 289.301 688.123 288.854 688.48H288.79L289.173 685.263H293.733V684.091H288.066L287.405 689.46L288.641 689.609C289.094 689.284 289.866 689.05 290.537 689.055C291.927 689.066 292.945 690.121 292.945 691.548C292.945 692.949 291.965 693.977 290.622 693.977C289.504 693.977 288.614 693.258 288.513 692.273H287.235C287.314 693.935 288.747 695.149 290.622 695.149ZM299.834 695.149C302.012 695.149 303.53 693.876 303.541 692.102C303.53 690.723 302.609 689.551 301.432 689.332V689.268C302.454 689.002 303.125 688.001 303.136 686.839C303.125 685.178 301.73 683.942 299.834 683.942C297.916 683.942 296.52 685.178 296.531 686.839C296.52 688.001 297.191 689.002 298.236 689.268V689.332C297.037 689.551 296.116 690.723 296.126 692.102C296.116 693.876 297.634 695.149 299.834 695.149ZM299.834 693.977C298.337 693.977 297.415 693.21 297.426 692.038C297.415 690.808 298.433 689.929 299.834 689.929C301.213 689.929 302.231 690.808 302.241 692.038C302.231 693.21 301.309 693.977 299.834 693.977ZM299.834 688.8C298.64 688.8 297.799 688.054 297.809 686.925C297.799 685.817 298.608 685.092 299.834 685.092C301.037 685.092 301.847 685.817 301.858 686.925C301.847 688.054 301.005 688.8 299.834 688.8ZM305.923 695H307.308L312.166 685.327V684.091H305.178V685.263H310.803V685.348L305.923 695ZM318.37 695H325.253V693.828H320.182V693.743L322.632 691.122C324.507 689.114 325.061 688.176 325.061 686.967C325.061 685.284 323.697 683.942 321.78 683.942C319.867 683.942 318.413 685.241 318.413 687.159H319.67C319.67 685.918 320.475 685.092 321.737 685.092C322.919 685.092 323.825 685.817 323.825 686.967C323.825 687.974 323.234 688.72 321.971 690.099L318.37 694.041V695ZM331.139 695.149C333.253 695.149 334.825 693.823 334.825 692.038C334.825 690.653 334.004 689.647 332.63 689.418V689.332C333.733 688.997 334.42 688.091 334.42 686.861C334.42 685.316 333.2 683.942 331.181 683.942C329.296 683.942 327.729 685.103 327.666 686.818H328.944C328.992 685.732 330.025 685.092 331.16 685.092C332.364 685.092 333.141 685.822 333.141 686.925C333.141 688.075 332.241 688.821 330.947 688.821H330.073V689.993H330.947C332.603 689.993 333.525 690.835 333.525 692.038C333.525 693.194 332.518 693.977 331.117 693.977C329.855 693.977 328.853 693.327 328.774 692.273H327.431C327.511 693.988 329.024 695.149 331.139 695.149ZM340.412 695.149C342.49 695.149 344.013 693.615 344.013 691.527C344.013 689.412 342.543 687.862 340.54 687.862C339.805 687.862 339.091 688.123 338.644 688.48H338.58L338.964 685.263H343.523V684.091H337.856L337.195 689.46L338.431 689.609C338.884 689.284 339.656 689.05 340.327 689.055C341.717 689.066 342.735 690.121 342.735 691.548C342.735 692.949 341.755 693.977 340.412 693.977C339.294 693.977 338.404 693.258 338.303 692.273H337.025C337.104 693.935 338.537 695.149 340.412 695.149Z" fill="#767676"/>
<path d="M26.4382 735H28.4134V730.398H31.098C34.1342 730.398 35.6364 728.563 35.6364 726.147C35.6364 723.737 34.147 721.909 31.1044 721.909H26.4382V735ZM28.4134 728.723V723.603H30.8935C32.8494 723.603 33.6484 724.664 33.6484 726.147C33.6484 727.63 32.8494 728.723 30.919 728.723H28.4134ZM41.907 735.198C44.0483 735.198 45.5632 734.143 45.9979 732.545L44.1889 732.219C43.8438 733.146 43.0128 733.619 41.9261 733.619C40.2898 733.619 39.1903 732.558 39.1392 730.666H46.1193V729.989C46.1193 726.441 43.9972 725.054 41.7727 725.054C39.0369 725.054 37.2344 727.138 37.2344 730.155C37.2344 733.204 39.0114 735.198 41.907 735.198ZM39.1456 729.234C39.2223 727.841 40.2322 726.633 41.7855 726.633C43.2685 726.633 44.2401 727.732 44.2464 729.234H39.1456ZM48.2399 735H50.1511V729.004C50.1511 727.719 51.1419 726.793 52.497 726.793C52.8933 726.793 53.3407 726.863 53.4941 726.908V725.08C53.3024 725.054 52.9252 725.035 52.6824 725.035C51.5318 725.035 50.5474 725.687 50.1895 726.741H50.0872V725.182H48.2399V735ZM62.5053 727.579C62.109 726.051 60.9137 725.054 58.7915 725.054C56.5735 725.054 55.0011 726.224 55.0011 727.962C55.0011 729.356 55.8448 730.283 57.6857 730.692L59.3477 731.056C60.2937 731.267 60.7347 731.689 60.7347 732.303C60.7347 733.063 59.9229 733.658 58.6701 733.658C57.5259 733.658 56.7908 733.165 56.5607 732.2L54.7134 732.482C55.033 734.22 56.4776 735.198 58.6829 735.198C61.0543 735.198 62.6971 733.939 62.6971 732.162C62.6971 730.775 61.815 729.918 60.0124 729.503L58.4528 729.145C57.3725 728.889 56.9059 728.525 56.9123 727.86C56.9059 727.106 57.7241 726.569 58.8107 726.569C59.9996 726.569 60.5494 727.227 60.7731 727.886L62.5053 727.579ZM68.9341 735.198C71.7019 735.198 73.5108 733.172 73.5108 730.136C73.5108 727.08 71.7019 725.054 68.9341 725.054C66.1664 725.054 64.3574 727.08 64.3574 730.136C64.3574 733.172 66.1664 735.198 68.9341 735.198ZM68.9405 733.594C67.1316 733.594 66.2878 732.015 66.2878 730.129C66.2878 728.25 67.1316 726.652 68.9405 726.652C70.7367 726.652 71.5804 728.25 71.5804 730.129C71.5804 732.015 70.7367 733.594 68.9405 733.594ZM77.5554 729.17C77.5554 727.604 78.5142 726.71 79.8438 726.71C81.1413 726.71 81.9276 727.56 81.9276 728.985V735H83.8388V728.755C83.8388 726.326 82.5028 725.054 80.4957 725.054C79.0192 725.054 78.054 725.738 77.6001 726.78H77.4787V725.182H75.6442V735H77.5554V729.17ZM89.2592 735.217C90.8828 735.217 91.7969 734.393 92.1612 733.658H92.2379V735H94.1044V728.48C94.1044 725.623 91.8544 725.054 90.2947 725.054C88.5178 725.054 86.8814 725.77 86.2422 727.56L88.0384 727.969C88.3196 727.272 89.0355 726.601 90.3203 726.601C91.554 726.601 92.1868 727.246 92.1868 728.359V728.403C92.1868 729.1 91.4709 729.087 89.7067 729.292C87.8466 729.509 85.9418 729.995 85.9418 732.226C85.9418 734.156 87.3928 735.217 89.2592 735.217ZM89.6747 733.683C88.5945 733.683 87.8146 733.197 87.8146 732.251C87.8146 731.229 88.7223 730.864 89.8281 730.717C90.4482 730.634 91.9183 730.468 92.1932 730.193V731.459C92.1932 732.622 91.2663 733.683 89.6747 733.683ZM98.5613 721.909H96.65V735H98.5613V721.909ZM102.392 727.975C103.088 727.975 103.67 727.406 103.67 726.697C103.67 726 103.088 725.425 102.392 725.425C101.689 725.425 101.113 726 101.113 726.697C101.113 727.406 101.689 727.975 102.392 727.975ZM102.392 735.121C103.088 735.121 103.67 734.553 103.67 733.843C103.67 733.146 103.088 732.571 102.392 732.571C101.689 732.571 101.113 733.146 101.113 733.843C101.113 734.553 101.689 735.121 102.392 735.121Z" fill="#767676"/>
<path d="M189.4 732.254H190.593V729.335H193.513V728.142H190.593V725.223H189.4V728.142H186.481V729.335H189.4V732.254ZM199.48 733.149C201.557 733.149 203.081 731.615 203.081 729.527C203.081 727.412 201.61 725.862 199.608 725.862C198.873 725.862 198.159 726.123 197.711 726.48H197.647L198.031 723.263H202.591V722.091H196.923L196.262 727.46L197.498 727.609C197.951 727.284 198.723 727.05 199.395 727.055C200.785 727.066 201.802 728.121 201.802 729.548C201.802 730.949 200.822 731.977 199.48 731.977C198.361 731.977 197.472 731.258 197.37 730.273H196.092C196.172 731.935 197.605 733.149 199.48 733.149ZM208.691 733.149C210.87 733.149 212.388 731.876 212.398 730.102C212.388 728.723 211.466 727.551 210.289 727.332V727.268C211.312 727.002 211.983 726.001 211.994 724.839C211.983 723.178 210.587 721.942 208.691 721.942C206.773 721.942 205.378 723.178 205.388 724.839C205.378 726.001 206.049 727.002 207.093 727.268V727.332C205.894 727.551 204.973 728.723 204.984 730.102C204.973 731.876 206.491 733.149 208.691 733.149ZM208.691 731.977C207.194 731.977 206.273 731.21 206.283 730.038C206.273 728.808 207.29 727.929 208.691 727.929C210.071 727.929 211.088 728.808 211.099 730.038C211.088 731.21 210.166 731.977 208.691 731.977ZM208.691 726.8C207.498 726.8 206.656 726.054 206.667 724.925C206.656 723.817 207.466 723.092 208.691 723.092C209.895 723.092 210.704 723.817 210.715 724.925C210.704 726.054 209.863 726.8 208.691 726.8ZM219.127 728.398C219.127 731.082 219.852 733.32 221.151 735.216H222.259C221.237 733.81 220.427 730.933 220.427 728.398C220.427 725.862 221.237 722.986 222.259 721.58H221.151C219.852 723.476 219.127 725.713 219.127 728.398ZM227.651 733.149C230.059 733.149 231.444 731.109 231.444 727.545C231.444 724.009 230.038 721.942 227.651 721.942C225.265 721.942 223.859 724.009 223.859 727.545C223.859 731.109 225.244 733.149 227.651 733.149ZM227.651 731.977C226.064 731.977 225.137 730.385 225.137 727.545C225.137 724.712 226.075 723.092 227.651 723.092C229.228 723.092 230.166 724.712 230.166 727.545C230.166 730.385 229.239 731.977 227.651 731.977ZM233.468 733H240.35V731.828H235.279V731.743L237.729 729.122C239.604 727.114 240.158 726.176 240.158 724.967C240.158 723.284 238.795 721.942 236.877 721.942C234.965 721.942 233.511 723.241 233.511 725.159H234.768C234.768 723.918 235.572 723.092 236.835 723.092C238.017 723.092 238.923 723.817 238.923 724.967C238.923 725.974 238.331 726.72 237.069 728.099L233.468 732.041V733ZM246.385 722.091H245.064L242.337 723.902V725.244L245 723.476H245.064V733H246.385V722.091ZM252.229 728.398C252.229 725.713 251.504 723.476 250.205 721.58H249.097C250.119 722.986 250.929 725.862 250.929 728.398C250.929 730.933 250.119 733.81 249.097 735.216H250.205C251.504 733.32 252.229 731.082 252.229 728.398ZM258.643 733.149C260.758 733.149 262.33 731.823 262.33 730.038C262.33 728.653 261.509 727.647 260.135 727.418V727.332C261.238 726.997 261.925 726.091 261.925 724.861C261.925 723.316 260.705 721.942 258.686 721.942C256.8 721.942 255.234 723.103 255.17 724.818H256.449C256.497 723.732 257.53 723.092 258.665 723.092C259.869 723.092 260.646 723.822 260.646 724.925C260.646 726.075 259.746 726.821 258.452 726.821H257.578V727.993H258.452C260.108 727.993 261.03 728.835 261.03 730.038C261.03 731.194 260.023 731.977 258.622 731.977C257.36 731.977 256.358 731.327 256.278 730.273H254.936C255.016 731.988 256.529 733.149 258.643 733.149ZM267.917 733.149C269.995 733.149 271.518 731.615 271.518 729.527C271.518 727.412 270.048 725.862 268.045 725.862C267.31 725.862 266.596 726.123 266.149 726.48H266.085L266.468 723.263H271.028V722.091H265.36L264.7 727.46L265.936 727.609C266.388 727.284 267.161 727.05 267.832 727.055C269.222 727.066 270.24 728.121 270.24 729.548C270.24 730.949 269.26 731.977 267.917 731.977C266.799 731.977 265.909 731.258 265.808 730.273H264.529C264.609 731.935 266.042 733.149 267.917 733.149ZM277.256 733.149C279.462 733.176 280.9 731.514 280.9 729.484C280.9 727.375 279.339 725.862 277.469 725.862C276.345 725.862 275.381 726.411 274.785 727.311H274.699C274.705 724.653 275.738 723.114 277.427 723.114C278.577 723.114 279.27 723.838 279.515 724.818H280.815C280.548 723.124 279.259 721.942 277.427 721.942C274.971 721.942 273.464 724.115 273.464 727.972C273.464 732.004 275.467 733.128 277.256 733.149ZM277.256 731.977C275.887 731.977 274.886 730.811 274.891 729.506C274.897 728.201 275.946 727.034 277.299 727.034C278.636 727.034 279.621 728.131 279.621 729.484C279.621 730.869 278.593 731.977 277.256 731.977ZM290.622 733.149C292.7 733.149 294.223 731.615 294.223 729.527C294.223 727.412 292.753 725.862 290.75 725.862C290.015 725.862 289.301 726.123 288.854 726.48H288.79L289.173 723.263H293.733V722.091H288.066L287.405 727.46L288.641 727.609C289.094 727.284 289.866 727.05 290.537 727.055C291.927 727.066 292.945 728.121 292.945 729.548C292.945 730.949 291.965 731.977 290.622 731.977C289.504 731.977 288.614 731.258 288.513 730.273H287.235C287.314 731.935 288.747 733.149 290.622 733.149ZM299.834 733.149C302.012 733.149 303.53 731.876 303.541 730.102C303.53 728.723 302.609 727.551 301.432 727.332V727.268C302.454 727.002 303.125 726.001 303.136 724.839C303.125 723.178 301.73 721.942 299.834 721.942C297.916 721.942 296.52 723.178 296.531 724.839C296.52 726.001 297.191 727.002 298.236 727.268V727.332C297.037 727.551 296.116 728.723 296.126 730.102C296.116 731.876 297.634 733.149 299.834 733.149ZM299.834 731.977C298.337 731.977 297.415 731.21 297.426 730.038C297.415 728.808 298.433 727.929 299.834 727.929C301.213 727.929 302.231 728.808 302.241 730.038C302.231 731.21 301.309 731.977 299.834 731.977ZM299.834 726.8C298.64 726.8 297.799 726.054 297.809 724.925C297.799 723.817 298.608 723.092 299.834 723.092C301.037 723.092 301.847 723.817 301.858 724.925C301.847 726.054 301.005 726.8 299.834 726.8ZM305.923 733H307.308L312.166 723.327V722.091H305.178V723.263H310.803V723.348L305.923 733ZM318.37 733H325.253V731.828H320.182V731.743L322.632 729.122C324.507 727.114 325.061 726.176 325.061 724.967C325.061 723.284 323.697 721.942 321.78 721.942C319.867 721.942 318.413 723.241 318.413 725.159H319.67C319.67 723.918 320.475 723.092 321.737 723.092C322.919 723.092 323.825 723.817 323.825 724.967C323.825 725.974 323.234 726.72 321.971 728.099L318.37 732.041V733ZM331.139 733.149C333.253 733.149 334.825 731.823 334.825 730.038C334.825 728.653 334.004 727.647 332.63 727.418V727.332C333.733 726.997 334.42 726.091 334.42 724.861C334.42 723.316 333.2 721.942 331.181 721.942C329.296 721.942 327.729 723.103 327.666 724.818H328.944C328.992 723.732 330.025 723.092 331.16 723.092C332.364 723.092 333.141 723.822 333.141 724.925C333.141 726.075 332.241 726.821 330.947 726.821H330.073V727.993H330.947C332.603 727.993 333.525 728.835 333.525 730.038C333.525 731.194 332.518 731.977 331.117 731.977C329.855 731.977 328.853 731.327 328.774 730.273H327.431C327.511 731.988 329.024 733.149 331.139 733.149ZM340.412 733.149C342.49 733.149 344.013 731.615 344.013 729.527C344.013 727.412 342.543 725.862 340.54 725.862C339.805 725.862 339.091 726.123 338.644 726.48H338.58L338.964 723.263H343.523V722.091H337.856L337.195 727.46L338.431 727.609C338.884 727.284 339.656 727.05 340.327 727.055C341.717 727.066 342.735 728.121 342.735 729.548C342.735 730.949 341.755 731.977 340.412 731.977C339.294 731.977 338.404 731.258 338.303 730.273H337.025C337.104 731.935 338.537 733.149 340.412 733.149Z" fill="#767676"/>
<circle cx="185" cy="591" r="20" fill="#FFB400"/>
<g clip-path="url(#clip1_2_971)">
<path d="M180.5 583.5H189.5C189.699 583.5 189.89 583.579 190.03 583.72C190.171 583.86 190.25 584.051 190.25 584.25V597.75C190.25 597.949 190.171 598.14 190.03 598.28C189.89 598.421 189.699 598.5 189.5 598.5H180.5C180.301 598.5 180.11 598.421 179.97 598.28C179.829 598.14 179.75 597.949 179.75 597.75V584.25C179.75 584.051 179.829 583.86 179.97 583.72C180.11 583.579 180.301 583.5 180.5 583.5ZM185 594.75C184.801 594.75 184.61 594.829 184.47 594.97C184.329 595.11 184.25 595.301 184.25 595.5C184.25 595.699 184.329 595.89 184.47 596.03C184.61 596.171 184.801 596.25 185 596.25C185.199 596.25 185.39 596.171 185.53 596.03C185.671 595.89 185.75 595.699 185.75 595.5C185.75 595.301 185.671 595.11 185.53 594.97C185.39 594.829 185.199 594.75 185 594.75Z" fill="#2B2B2B"/>
</g>
<rect y="90" width="370" height="210" fill="white"/>
<path d="M37.3111 195.166C36.8636 192.366 34.6712 190.73 31.9034 190.73C28.5156 190.73 26.0163 193.268 26.0163 197.455C26.0163 201.641 28.5028 204.179 31.9034 204.179C34.7798 204.179 36.8828 202.376 37.3111 199.788L35.3168 199.781C34.978 201.456 33.5717 202.376 31.9162 202.376C29.6726 202.376 27.9787 200.657 27.9787 197.455C27.9787 194.278 29.6662 192.533 31.9226 192.533C33.5909 192.533 34.9908 193.472 35.3168 195.166H37.3111ZM43.6568 204.198C46.4245 204.198 48.2335 202.172 48.2335 199.136C48.2335 196.08 46.4245 194.054 43.6568 194.054C40.889 194.054 39.0801 196.08 39.0801 199.136C39.0801 202.172 40.889 204.198 43.6568 204.198ZM43.6632 202.594C41.8542 202.594 41.0105 201.015 41.0105 199.129C41.0105 197.25 41.8542 195.652 43.6632 195.652C45.4593 195.652 46.3031 197.25 46.3031 199.129C46.3031 201.015 45.4593 202.594 43.6632 202.594ZM56.5863 199.928C56.5927 201.597 55.3526 202.389 54.2788 202.389C53.0962 202.389 52.2781 201.533 52.2781 200.197V194.182H50.3668V200.427C50.3668 202.862 51.7028 204.128 53.5884 204.128C55.065 204.128 56.0685 203.348 56.5224 202.3H56.6246V204H58.5039V194.182H56.5863V199.928ZM62.9831 198.17C62.9831 196.604 63.9419 195.71 65.2715 195.71C66.5691 195.71 67.3553 196.56 67.3553 197.985V204H69.2665V197.755C69.2665 195.326 67.9306 194.054 65.9235 194.054C64.4469 194.054 63.4817 194.738 63.0279 195.78H62.9064V194.182H61.0719V204H62.9831V198.17ZM76.4128 194.182H74.3993V191.83H72.4881V194.182H71.0499V195.716H72.4881V201.513C72.4817 203.297 73.8432 204.16 75.3517 204.128C75.959 204.121 76.3681 204.006 76.5918 203.923L76.2466 202.344C76.1188 202.37 75.8823 202.428 75.5755 202.428C74.9554 202.428 74.3993 202.223 74.3993 201.117V195.716H76.4128V194.182ZM78.527 204H80.4382V198.004C80.4382 196.719 81.429 195.793 82.7841 195.793C83.1804 195.793 83.6278 195.863 83.7812 195.908V194.08C83.5895 194.054 83.2124 194.035 82.9695 194.035C81.8189 194.035 80.8345 194.687 80.4766 195.741H80.3743V194.182H78.527V204ZM86.9421 207.682C88.521 207.682 89.5181 206.857 90.087 205.31L94.146 194.201L92.0813 194.182L89.5948 201.801H89.4925L87.006 194.182H84.9606L88.5529 204.128L88.3164 204.78C87.8306 206.084 87.1467 206.192 86.0984 205.905L85.6381 207.471C85.8683 207.573 86.3668 207.682 86.9421 207.682ZM97.2061 196.975C97.9029 196.975 98.4846 196.406 98.4846 195.697C98.4846 195 97.9029 194.425 97.2061 194.425C96.503 194.425 95.9277 195 95.9277 195.697C95.9277 196.406 96.503 196.975 97.2061 196.975ZM97.2061 204.121C97.9029 204.121 98.4846 203.553 98.4846 202.843C98.4846 202.146 97.9029 201.571 97.2061 201.571C96.503 201.571 95.9277 202.146 95.9277 202.843C95.9277 203.553 96.503 204.121 97.2061 204.121Z" fill="#767676"/>
<path d="M263.44 202H267.382C269.96 202 271.025 200.743 271.025 199.102C271.025 197.376 269.832 196.439 268.831 196.375V196.268C269.768 196.013 270.599 195.395 270.599 193.989C270.599 192.391 269.534 191.091 267.254 191.091H263.44V202ZM264.761 200.828V197.036H267.446C268.873 197.036 269.768 197.994 269.768 199.102C269.768 200.061 269.108 200.828 267.382 200.828H264.761ZM264.761 195.885V192.263H267.254C268.703 192.263 269.342 193.03 269.342 193.989C269.342 195.139 268.405 195.885 267.211 195.885H264.761ZM275.433 202.192C276.861 202.192 277.607 201.425 277.862 200.892H277.926V202H279.183V196.609C279.183 194.01 277.202 193.712 276.158 193.712C274.922 193.712 273.516 194.138 272.876 195.629L274.07 196.055C274.347 195.459 275.002 194.82 276.2 194.82C277.356 194.82 277.926 195.432 277.926 196.482V196.524C277.926 197.131 277.308 197.078 275.817 197.27C274.299 197.467 272.642 197.803 272.642 199.678C272.642 201.276 273.878 202.192 275.433 202.192ZM275.625 201.062C274.624 201.062 273.899 200.615 273.899 199.741C273.899 198.783 274.773 198.484 275.753 198.357C276.286 198.293 277.713 198.143 277.926 197.888V199.038C277.926 200.061 277.116 201.062 275.625 201.062ZM282.735 197.078C282.735 195.651 283.619 194.841 284.823 194.841C285.989 194.841 286.698 195.603 286.698 196.886V202H287.955V196.801C287.955 194.713 286.842 193.712 285.185 193.712C283.949 193.712 283.182 194.266 282.799 195.097H282.692V193.818H281.478V202H282.735V197.078ZM293.555 205.239C295.515 205.239 297.092 204.344 297.092 202.234V193.818H295.877V195.118H295.749C295.472 194.692 294.961 193.712 293.363 193.712C291.296 193.712 289.869 195.352 289.869 197.866C289.869 200.423 291.36 201.872 293.342 201.872C294.94 201.872 295.451 200.935 295.728 200.487H295.835V202.149C295.835 203.513 294.876 204.131 293.555 204.131C292.069 204.131 291.547 203.348 291.211 202.895L290.21 203.598C290.721 204.456 291.728 205.239 293.555 205.239ZM293.512 200.743C291.935 200.743 291.126 199.55 291.126 197.845C291.126 196.183 291.914 194.841 293.512 194.841C295.046 194.841 295.856 196.077 295.856 197.845C295.856 199.656 295.025 200.743 293.512 200.743ZM300.65 191.091H299.393V202H300.65V191.091ZM305.36 202.192C306.788 202.192 307.533 201.425 307.789 200.892H307.853V202H309.11V196.609C309.11 194.01 307.128 193.712 306.084 193.712C304.849 193.712 303.442 194.138 302.803 195.629L303.996 196.055C304.273 195.459 304.929 194.82 306.127 194.82C307.283 194.82 307.853 195.432 307.853 196.482V196.524C307.853 197.131 307.235 197.078 305.744 197.27C304.225 197.467 302.569 197.803 302.569 199.678C302.569 201.276 303.805 202.192 305.36 202.192ZM305.552 201.062C304.55 201.062 303.826 200.615 303.826 199.741C303.826 198.783 304.699 198.484 305.68 198.357C306.212 198.293 307.64 198.143 307.853 197.888V199.038C307.853 200.061 307.043 201.062 305.552 201.062ZM314.494 202.17C316.071 202.17 316.603 201.19 316.88 200.743H317.029V202H318.244V191.091H316.987V195.118H316.88C316.603 194.692 316.113 193.712 314.515 193.712C312.449 193.712 311.021 195.352 311.021 197.93C311.021 200.53 312.449 202.17 314.494 202.17ZM314.664 201.041C313.088 201.041 312.278 199.656 312.278 197.909C312.278 196.183 313.066 194.841 314.664 194.841C316.199 194.841 317.008 196.077 317.008 197.909C317.008 199.763 316.177 201.041 314.664 201.041ZM324.151 202.17C325.813 202.17 327.028 201.339 327.411 200.104L326.197 199.763C325.877 200.615 325.137 201.041 324.151 201.041C322.676 201.041 321.658 200.088 321.6 198.335H327.539V197.803C327.539 194.756 325.728 193.712 324.023 193.712C321.808 193.712 320.337 195.459 320.337 197.973C320.337 200.487 321.786 202.17 324.151 202.17ZM321.6 197.249C321.685 195.975 322.585 194.841 324.023 194.841C325.387 194.841 326.261 195.864 326.261 197.249H321.6ZM335.247 195.651C334.853 194.489 333.968 193.712 332.349 193.712C330.623 193.712 329.345 194.692 329.345 196.077C329.345 197.206 330.016 197.962 331.518 198.314L332.882 198.634C333.707 198.825 334.096 199.219 334.096 199.784C334.096 200.487 333.35 201.062 332.179 201.062C331.151 201.062 330.506 200.62 330.282 199.741L329.089 200.04C329.382 201.43 330.527 202.17 332.2 202.17C334.102 202.17 335.396 201.132 335.396 199.72C335.396 198.58 334.682 197.861 333.223 197.504L332.008 197.206C331.039 196.966 330.602 196.641 330.602 196.013C330.602 195.31 331.348 194.798 332.349 194.798C333.446 194.798 333.899 195.406 334.118 195.97L335.247 195.651ZM338.545 197.078C338.545 195.651 339.456 194.841 340.697 194.841C341.88 194.841 342.594 195.587 342.594 196.886V202H343.851V196.801C343.851 194.697 342.732 193.712 341.06 193.712C339.771 193.712 339.035 194.25 338.652 195.097H338.545V191.091H337.288V202H338.545V197.078Z" fill="#767676"/>
<path d="M37.3111 233.166C36.8636 230.366 34.6712 228.73 31.9034 228.73C28.5156 228.73 26.0163 231.268 26.0163 235.455C26.0163 239.641 28.5028 242.179 31.9034 242.179C34.7798 242.179 36.8828 240.376 37.3111 237.788L35.3168 237.781C34.978 239.456 33.5717 240.376 31.9162 240.376C29.6726 240.376 27.9787 238.657 27.9787 235.455C27.9787 232.278 29.6662 230.533 31.9226 230.533C33.5909 230.533 34.9908 231.472 35.3168 233.166H37.3111ZM39.5211 242H41.4324V232.182H39.5211V242ZM40.4863 230.667C41.1447 230.667 41.6944 230.156 41.6944 229.529C41.6944 228.903 41.1447 228.385 40.4863 228.385C39.8216 228.385 39.2782 228.903 39.2782 229.529C39.2782 230.156 39.8216 230.667 40.4863 230.667ZM48.5866 232.182H46.5732V229.83H44.6619V232.182H43.2237V233.716H44.6619V239.513C44.6555 241.297 46.017 242.16 47.5256 242.128C48.1328 242.121 48.5419 242.006 48.7656 241.923L48.4205 240.344C48.2926 240.37 48.0561 240.428 47.7493 240.428C47.1293 240.428 46.5732 240.223 46.5732 239.117V233.716H48.5866V232.182ZM51.9089 245.682C53.4877 245.682 54.4849 244.857 55.0538 243.31L59.1127 232.201L57.0481 232.182L54.5616 239.801H54.4593L51.9728 232.182H49.9274L53.5197 242.128L53.2832 242.78C52.7974 244.084 52.1135 244.192 51.0652 243.905L50.6049 245.471C50.835 245.573 51.3336 245.682 51.9089 245.682ZM62.1729 234.975C62.8697 234.975 63.4513 234.406 63.4513 233.697C63.4513 233 62.8697 232.425 62.1729 232.425C61.4698 232.425 60.8945 233 60.8945 233.697C60.8945 234.406 61.4698 234.975 62.1729 234.975ZM62.1729 242.121C62.8697 242.121 63.4513 241.553 63.4513 240.843C63.4513 240.146 62.8697 239.571 62.1729 239.571C61.4698 239.571 60.8945 240.146 60.8945 240.843C60.8945 241.553 61.4698 242.121 62.1729 242.121Z" fill="#767676"/>
<path d="M304.98 240C308.304 240 310.179 237.933 310.179 234.524C310.179 231.136 308.304 229.091 305.13 229.091H301.614V240H304.98ZM302.935 238.828V230.263H305.044C307.601 230.263 308.901 231.882 308.901 234.524C308.901 237.188 307.601 238.828 304.895 238.828H302.935ZM313.482 235.078C313.482 233.651 314.393 232.841 315.634 232.841C316.816 232.841 317.53 233.587 317.53 234.886V240H318.787V234.801C318.787 232.697 317.669 231.712 315.996 231.712C314.707 231.712 313.972 232.25 313.588 233.097H313.482V229.091H312.225V240H313.482V235.078ZM323.495 240.192C324.922 240.192 325.668 239.425 325.924 238.892H325.988V240H327.245V234.609C327.245 232.01 325.263 231.712 324.219 231.712C322.983 231.712 321.577 232.138 320.938 233.629L322.131 234.055C322.408 233.459 323.063 232.82 324.262 232.82C325.418 232.82 325.988 233.432 325.988 234.482V234.524C325.988 235.131 325.37 235.078 323.878 235.27C322.36 235.467 320.704 235.803 320.704 237.678C320.704 239.276 321.939 240.192 323.495 240.192ZM323.687 239.062C322.685 239.062 321.961 238.615 321.961 237.741C321.961 236.783 322.834 236.484 323.814 236.357C324.347 236.293 325.775 236.143 325.988 235.888V237.038C325.988 238.061 325.178 239.062 323.687 239.062ZM329.539 240H330.796V236.937L331.675 236.122L334.738 240H336.336L332.623 235.312L336.08 231.818H334.525L330.945 235.462H330.796V229.091H329.539V240ZM340.106 240.192C341.534 240.192 342.279 239.425 342.535 238.892H342.599V240H343.856V234.609C343.856 232.01 341.875 231.712 340.831 231.712C339.595 231.712 338.188 232.138 337.549 233.629L338.742 234.055C339.019 233.459 339.675 232.82 340.873 232.82C342.029 232.82 342.599 233.432 342.599 234.482V234.524C342.599 235.131 341.981 235.078 340.49 235.27C338.972 235.467 337.315 235.803 337.315 237.678C337.315 239.276 338.551 240.192 340.106 240.192ZM340.298 239.062C339.296 239.062 338.572 238.615 338.572 237.741C338.572 236.783 339.446 236.484 340.426 236.357C340.958 236.293 342.386 236.143 342.599 235.888V237.038C342.599 238.061 341.789 239.062 340.298 239.062Z" fill="#767676"/>
<path d="M33.5781 270.348H35.483C35.4254 268.251 33.5717 266.73 30.9126 266.73C28.2855 266.73 26.272 268.232 26.272 270.489C26.272 272.31 27.576 273.378 29.679 273.947L31.2259 274.369C32.6257 274.739 33.706 275.2 33.706 276.363C33.706 277.641 32.4851 278.485 30.804 278.485C29.2827 278.485 28.017 277.808 27.902 276.382H25.9205C26.0483 278.754 27.8828 280.217 30.8168 280.217C33.8913 280.217 35.6619 278.6 35.6619 276.382C35.6619 274.023 33.5589 273.109 31.897 272.7L30.6186 272.368C29.5959 272.106 28.2344 271.626 28.2408 270.374C28.2408 269.261 29.2571 268.437 30.8679 268.437C32.37 268.437 33.4375 269.14 33.5781 270.348ZM42.4519 270.182H40.4384V267.83H38.5272V270.182H37.089V271.716H38.5272V277.513C38.5208 279.297 39.8823 280.16 41.3908 280.128C41.998 280.121 42.4071 280.006 42.6309 279.923L42.2857 278.344C42.1578 278.37 41.9213 278.428 41.6145 278.428C40.9945 278.428 40.4384 278.223 40.4384 277.117V271.716H42.4519V270.182ZM44.5661 280H46.4773V274.004C46.4773 272.719 47.468 271.793 48.8232 271.793C49.2195 271.793 49.6669 271.863 49.8203 271.908V270.08C49.6286 270.054 49.2514 270.035 49.0085 270.035C47.858 270.035 46.8736 270.687 46.5156 271.741H46.4134V270.182H44.5661V280ZM55.3542 280.198C57.4956 280.198 59.0105 279.143 59.4451 277.545L57.6362 277.219C57.291 278.146 56.4601 278.619 55.3734 278.619C53.737 278.619 52.6376 277.558 52.5865 275.666H59.5666V274.989C59.5666 271.441 57.4444 270.054 55.22 270.054C52.4842 270.054 50.6816 272.138 50.6816 275.155C50.6816 278.204 52.4586 280.198 55.3542 280.198ZM52.5929 274.234C52.6696 272.841 53.6795 271.633 55.2328 271.633C56.7157 271.633 57.6873 272.732 57.6937 274.234H52.5929ZM64.5444 280.217C66.168 280.217 67.082 279.393 67.4464 278.658H67.5231V280H69.3896V273.48C69.3896 270.623 67.1396 270.054 65.5799 270.054C63.8029 270.054 62.1665 270.77 61.5273 272.56L63.3235 272.969C63.6048 272.272 64.3207 271.601 65.6055 271.601C66.8391 271.601 67.4719 272.246 67.4719 273.359V273.403C67.4719 274.1 66.756 274.087 64.9918 274.292C63.1317 274.509 61.2269 274.995 61.2269 277.226C61.2269 279.156 62.6779 280.217 64.5444 280.217ZM64.9599 278.683C63.8796 278.683 63.0998 278.197 63.0998 277.251C63.0998 276.229 64.0075 275.864 65.1133 275.717C65.7333 275.634 67.2035 275.468 67.4783 275.193V276.459C67.4783 277.622 66.5515 278.683 64.9599 278.683ZM76.5183 270.182H74.5048V267.83H72.5936V270.182H71.1554V271.716H72.5936V277.513C72.5872 279.297 73.9487 280.16 75.4572 280.128C76.0645 280.121 76.4735 280.006 76.6973 279.923L76.3521 278.344C76.2243 278.37 75.9877 278.428 75.6809 278.428C75.0609 278.428 74.5048 278.223 74.5048 277.117V271.716H76.5183V270.182ZM79.8917 272.975C80.5884 272.975 81.1701 272.406 81.1701 271.697C81.1701 271 80.5884 270.425 79.8917 270.425C79.1886 270.425 78.6133 271 78.6133 271.697C78.6133 272.406 79.1886 272.975 79.8917 272.975ZM79.8917 280.121C80.5884 280.121 81.1701 279.553 81.1701 278.843C81.1701 278.146 80.5884 277.571 79.8917 277.571C79.1886 277.571 78.6133 278.146 78.6133 278.843C78.6133 279.553 79.1886 280.121 79.8917 280.121Z" fill="#767676"/>
<path d="M217.818 278.149C219.933 278.149 221.504 276.823 221.504 275.038C221.504 273.653 220.684 272.647 219.31 272.418V272.332C220.412 271.997 221.1 271.091 221.1 269.861C221.1 268.316 219.88 266.942 217.861 266.942C215.975 266.942 214.409 268.103 214.345 269.818H215.624C215.672 268.732 216.705 268.092 217.84 268.092C219.043 268.092 219.821 268.822 219.821 269.925C219.821 271.075 218.921 271.821 217.627 271.821H216.753V272.993H217.627C219.283 272.993 220.205 273.835 220.205 275.038C220.205 276.194 219.198 276.977 217.797 276.977C216.535 276.977 215.533 276.327 215.453 275.273H214.111C214.191 276.988 215.704 278.149 217.818 278.149ZM227.092 278.149C229.169 278.149 230.693 276.615 230.693 274.527C230.693 272.412 229.223 270.862 227.22 270.862C226.485 270.862 225.771 271.123 225.324 271.48H225.26L225.643 268.263H230.203V267.091H224.535L223.875 272.46L225.111 272.609C225.563 272.284 226.336 272.05 227.007 272.055C228.397 272.066 229.415 273.121 229.415 274.548C229.415 275.949 228.434 276.977 227.092 276.977C225.973 276.977 225.084 276.258 224.983 275.273H223.704C223.784 276.935 225.217 278.149 227.092 278.149ZM237.667 267.091H236.282L240.288 278H241.651L245.657 267.091H244.272L241.033 276.274H240.906L237.667 267.091ZM248.443 273.078C248.443 271.651 249.354 270.841 250.595 270.841C251.777 270.841 252.491 271.587 252.491 272.886V278H253.748V272.801C253.748 270.697 252.63 269.712 250.957 269.712C249.668 269.712 248.933 270.25 248.549 271.097H248.443V267.091H247.186V278H248.443V273.078ZM258.456 278.192C259.883 278.192 260.629 277.425 260.885 276.892H260.949V278H262.206V272.609C262.206 270.01 260.224 269.712 259.18 269.712C257.944 269.712 256.538 270.138 255.899 271.629L257.092 272.055C257.369 271.459 258.024 270.82 259.223 270.82C260.379 270.82 260.949 271.432 260.949 272.482V272.524C260.949 273.131 260.331 273.078 258.839 273.27C257.321 273.467 255.665 273.803 255.665 275.678C255.665 277.276 256.9 278.192 258.456 278.192ZM258.647 277.062C257.646 277.062 256.922 276.615 256.922 275.741C256.922 274.783 257.795 274.484 258.775 274.357C259.308 274.293 260.736 274.143 260.949 273.888V275.038C260.949 276.061 260.139 277.062 258.647 277.062ZM268.058 269.818H266.311V267.858H265.054V269.818H263.818V270.884H265.054V275.997C265.054 277.425 266.205 278.107 267.27 278.107C267.739 278.107 268.037 278.021 268.208 277.957L267.952 276.828C267.845 276.849 267.675 276.892 267.398 276.892C266.844 276.892 266.311 276.722 266.311 275.656V270.884H268.058V269.818ZM272.357 278.192C273.785 278.192 274.53 277.425 274.786 276.892H274.85V278H276.107V272.609C276.107 270.01 274.126 269.712 273.081 269.712C271.846 269.712 270.439 270.138 269.8 271.629L270.993 272.055C271.27 271.459 271.926 270.82 273.124 270.82C274.28 270.82 274.85 271.432 274.85 272.482V272.524C274.85 273.131 274.232 273.078 272.741 273.27C271.222 273.467 269.566 273.803 269.566 275.678C269.566 277.276 270.802 278.192 272.357 278.192ZM272.549 277.062C271.547 277.062 270.823 276.615 270.823 275.741C270.823 274.783 271.697 274.484 272.677 274.357C273.209 274.293 274.637 274.143 274.85 273.888V275.038C274.85 276.061 274.04 277.062 272.549 277.062ZM278.402 278H279.659V272.822C279.659 271.714 280.532 270.905 281.725 270.905C282.061 270.905 282.407 270.969 282.492 270.99V269.712C282.349 269.701 282.018 269.69 281.832 269.69C280.852 269.69 280 270.244 279.701 271.054H279.616V269.818H278.402V278ZM286.39 278.192C287.818 278.192 288.564 277.425 288.819 276.892H288.883V278H290.14V272.609C290.14 270.01 288.159 269.712 287.115 269.712C285.879 269.712 284.473 270.138 283.833 271.629L285.027 272.055C285.304 271.459 285.959 270.82 287.157 270.82C288.313 270.82 288.883 271.432 288.883 272.482V272.524C288.883 273.131 288.265 273.078 286.774 273.27C285.256 273.467 283.599 273.803 283.599 275.678C283.599 277.276 284.835 278.192 286.39 278.192ZM286.582 277.062C285.581 277.062 284.856 276.615 284.856 275.741C284.856 274.783 285.73 274.484 286.71 274.357C287.243 274.293 288.67 274.143 288.883 273.888V275.038C288.883 276.061 288.074 277.062 286.582 277.062ZM294.31 276.509H292.946L292.882 277.105C292.728 278.549 292.424 279.987 292.286 280.663H293.244C293.5 279.939 294.043 278.298 294.225 277.084L294.31 276.509ZM301.028 278H304.97C307.548 278 308.613 276.743 308.613 275.102C308.613 273.376 307.42 272.439 306.419 272.375V272.268C307.356 272.013 308.187 271.395 308.187 269.989C308.187 268.391 307.122 267.091 304.842 267.091H301.028V278ZM302.349 276.828V273.036H305.034C306.461 273.036 307.356 273.994 307.356 275.102C307.356 276.061 306.696 276.828 304.97 276.828H302.349ZM302.349 271.885V268.263H304.842C306.291 268.263 306.93 269.03 306.93 269.989C306.93 271.139 305.993 271.885 304.799 271.885H302.349ZM313.021 278.192C314.449 278.192 315.194 277.425 315.45 276.892H315.514V278H316.771V272.609C316.771 270.01 314.79 269.712 313.746 269.712C312.51 269.712 311.104 270.138 310.464 271.629L311.657 272.055C311.934 271.459 312.59 270.82 313.788 270.82C314.944 270.82 315.514 271.432 315.514 272.482V272.524C315.514 273.131 314.896 273.078 313.405 273.27C311.887 273.467 310.23 273.803 310.23 275.678C310.23 277.276 311.466 278.192 313.021 278.192ZM313.213 277.062C312.211 277.062 311.487 276.615 311.487 275.741C311.487 274.783 312.361 274.484 313.341 274.357C313.873 274.293 315.301 274.143 315.514 273.888V275.038C315.514 276.061 314.704 277.062 313.213 277.062ZM322.155 278.17C323.732 278.17 324.264 277.19 324.541 276.743H324.691V278H325.905V267.091H324.648V271.118H324.541C324.264 270.692 323.774 269.712 322.176 269.712C320.11 269.712 318.682 271.352 318.682 273.93C318.682 276.53 320.11 278.17 322.155 278.17ZM322.326 277.041C320.749 277.041 319.939 275.656 319.939 273.909C319.939 272.183 320.728 270.841 322.326 270.841C323.86 270.841 324.669 272.077 324.669 273.909C324.669 275.763 323.838 277.041 322.326 277.041ZM331.472 278.17C333.048 278.17 333.581 277.19 333.858 276.743H334.007V278H335.222V267.091H333.964V271.118H333.858C333.581 270.692 333.091 269.712 331.493 269.712C329.426 269.712 327.998 271.352 327.998 273.93C327.998 276.53 329.426 278.17 331.472 278.17ZM331.642 277.041C330.065 277.041 329.256 275.656 329.256 273.909C329.256 272.183 330.044 270.841 331.642 270.841C333.176 270.841 333.986 272.077 333.986 273.909C333.986 275.763 333.155 277.041 331.642 277.041ZM340.106 278.192C341.534 278.192 342.279 277.425 342.535 276.892H342.599V278H343.856V272.609C343.856 270.01 341.875 269.712 340.831 269.712C339.595 269.712 338.188 270.138 337.549 271.629L338.742 272.055C339.019 271.459 339.675 270.82 340.873 270.82C342.029 270.82 342.599 271.432 342.599 272.482V272.524C342.599 273.131 341.981 273.078 340.49 273.27C338.972 273.467 337.315 273.803 337.315 275.678C337.315 277.276 338.551 278.192 340.106 278.192ZM340.298 277.062C339.296 277.062 338.572 276.615 338.572 275.741C338.572 274.783 339.446 274.484 340.426 274.357C340.958 274.293 342.386 274.143 342.599 273.888V275.038C342.599 276.061 341.789 277.062 340.298 277.062Z" fill="#767676"/>
<circle cx="185" cy="135" r="20" fill="#FFB400"/>
<g clip-path="url(#clip2_2_971)">
<path d="M177.5 129.75L182.75 127.5L187.25 129.75L191.977 127.724C192.034 127.7 192.097 127.69 192.158 127.695C192.22 127.701 192.28 127.722 192.332 127.756C192.383 127.79 192.426 127.837 192.455 127.891C192.485 127.946 192.5 128.007 192.5 128.069V140.25L187.25 142.5L182.75 140.25L178.023 142.276C177.966 142.3 177.903 142.31 177.842 142.305C177.78 142.299 177.72 142.278 177.668 142.244C177.617 142.21 177.574 142.163 177.545 142.109C177.515 142.054 177.5 141.993 177.5 141.931V129.75ZM187.25 140.823V131.382L187.201 131.403L182.75 129.177V138.618L182.799 138.597L187.25 140.823Z" fill="#2B2B2B"/>
</g>
<defs>
<clipPath id="clip0_2_971">
<rect width="18" height="18" fill="white" transform="translate(176 354)"/>
</clipPath>
<clipPath id="clip1_2_971">
<rect width="18" height="18" fill="white" transform="translate(176 582)"/>
</clipPath>
<clipPath id="clip2_2_971">
<rect width="18" height="18" fill="white" transform="translate(176 126)"/>
</clipPath>
</defs>
</svg>
